<svg id="etCEyXwfRpk1" xmlns="http://www.w3.org/2000/svg" xmlns:xlink="http://www.w3.org/1999/xlink" viewBox="0 0 24 24" shape-rendering="geometricPrecision" text-rendering="geometricPrecision"><style><![CDATA[#etCEyXwfRpk1{pointer-events: all}#etCEyXwfRpk1:hover #etCEyXwfRpk4_to {animation: etCEyXwfRpk4_to__to 1290ms linear 1 normal forwards}@keyframes etCEyXwfRpk4_to__to { 0% {transform: translate(11.998735px,16.5px)} 6.20155% {transform: translate(11.998735px,16.5px)} 26.356589% {transform: translate(11.998735px,18.5px)} 37.209302% {transform: translate(11.998735px,13.5px)} 54.263566% {transform: translate(11.998735px,16.5px)} 100% {transform: translate(11.998735px,16.5px)}} #etCEyXwfRpk1:hover #etCEyXwfRpk5 {animation: etCEyXwfRpk5_s_do 1290ms linear 1 normal forwards}@keyframes etCEyXwfRpk5_s_do { 0% {stroke-dashoffset: 13} 8.527132% {stroke-dashoffset: 13} 31.007752% {stroke-dashoffset: 20} 51.937984% {stroke-dashoffset: 20} 69.767442% {stroke-dashoffset: 13} 100% {stroke-dashoffset: 13}} #etCEyXwfRpk1:hover #etCEyXwfRpk6 {animation: etCEyXwfRpk6_s_do 1290ms linear 1 normal forwards}@keyframes etCEyXwfRpk6_s_do { 0% {stroke-dashoffset: 13} 8.527132% {stroke-dashoffset: 13} 31.007752% {stroke-dashoffset: 20} 51.937984% {stroke-dashoffset: 20} 69.767442% {stroke-dashoffset: 13} 100% {stroke-dashoffset: 13}} #etCEyXwfRpk1:hover #etCEyXwfRpk7_ts {animation: etCEyXwfRpk7_ts__ts 1290ms linear 1 normal forwards}@keyframes etCEyXwfRpk7_ts__ts { 0% {transform: translate(12px,16.5px) scale(1,-1)} 26.356589% {transform: translate(12px,16.5px) scale(1,-1)} 37.209302% {transform: translate(12px,16.5px) scale(1,1)} 100% {transform: translate(12px,16.5px) scale(1,1)}} #etCEyXwfRpk1:hover #etCEyXwfRpk7 {animation: etCEyXwfRpk7_s_do 1290ms linear 1 normal forwards}@keyframes etCEyXwfRpk7_s_do { 0% {stroke-dashoffset: 0} 26.356589% {stroke-dashoffset: 20} 37.209302% {stroke-dashoffset: 20} 67.44186% {stroke-dashoffset: 0} 100% {stroke-dashoffset: 0}}]]></style><g clip-path="url(#etCEyXwfRpk9)"><g><g id="etCEyXwfRpk4_to" transform="translate(11.998735,16.5)"><g transform="translate(-11.998734,-16.5)"><path id="etCEyXwfRpk5" d="M12,21l4-4" fill="none" stroke="#000" stroke-width="2" stroke-linecap="round" stroke-linejoin="round" stroke-dashoffset="13" stroke-dasharray="20"/><path id="etCEyXwfRpk6" d="M8,17l4,4" transform="matrix(-1 0 0-1 19.997469 38)" fill="none" stroke="#000" stroke-width="2" stroke-linecap="round" stroke-linejoin="round" stroke-dashoffset="13" stroke-dasharray="20"/><g id="etCEyXwfRpk7_ts" transform="translate(12,16.5) scale(1,-1)"><path id="etCEyXwfRpk7" d="M12,12v9" transform="translate(-12,-16.5)" fill="none" stroke="#000" stroke-width="2" stroke-linecap="round" stroke-linejoin="round" stroke-dasharray="20"/></g></g></g><path d="M20.88,18.09c.8694-.6114,1.5214-1.4838,1.8613-2.4909.3399-1.007.3501-2.0961.0291-3.1093s-.9565-1.8977-1.8143-2.52524-1.8933-.96539-2.9561-.96456h-1.26c-.3008-1.17213-.8635-2.26075-1.6459-3.18392s-1.764-1.65682-2.8709-2.14573-2.31036-.72032-3.51968-.67683-2.39301.36075-3.46197.92791-1.99533,1.36942-2.70937,2.3464-1.19713,2.10322-1.41293,3.29392-.158646,2.41485.16712,3.58025.91168,2.2418,1.71362,3.148" fill="none" stroke="#000" stroke-width="2" stroke-linecap="round" stroke-linejoin="round"/></g><clipPath id="etCEyXwfRpk9"><rect width="24" height="24" rx="0" ry="0" fill="#fff"/></clipPath></g></svg>