<svg id="eDzwkQcVZi81" xmlns="http://www.w3.org/2000/svg" xmlns:xlink="http://www.w3.org/1999/xlink" viewBox="0 0 24 24" shape-rendering="geometricPrecision" text-rendering="geometricPrecision"><style><![CDATA[#eDzwkQcVZi81{pointer-events: all}#eDzwkQcVZi81:hover #eDzwkQcVZi83_tr {animation: eDzwkQcVZi83_tr__tr 2250ms linear 1 normal forwards}@keyframes eDzwkQcVZi83_tr__tr { 0% {transform: translate(2px,12px) rotate(0deg)} 37.333333% {transform: translate(2px,12px) rotate(0deg)} 46.666667% {transform: translate(2px,12px) rotate(-15deg)} 52.444444% {transform: translate(2px,12px) rotate(0deg)} 55.555556% {transform: translate(2px,12px) rotate(-3deg)} 59.111111% {transform: translate(2px,12px) rotate(0deg)} 100% {transform: translate(2px,12px) rotate(0deg)}} #eDzwkQcVZi81:hover #eDzwkQcVZi84 {animation: eDzwkQcVZi84_s_do 2250ms linear 1 normal forwards}@keyframes eDzwkQcVZi84_s_do { 0% {stroke-dashoffset: 0} 13.777778% {stroke-dashoffset: 0} 33.333333% {stroke-dashoffset: 18} 58.222222% {stroke-dashoffset: 18} 77.777778% {stroke-dashoffset: 0} 100% {stroke-dashoffset: 0}} #eDzwkQcVZi81:hover #eDzwkQcVZi85 {animation: eDzwkQcVZi85_s_do 2250ms linear 1 normal forwards}@keyframes eDzwkQcVZi85_s_do { 0% {stroke-dashoffset: 0} 21.777778% {stroke-dashoffset: 20} 72.444444% {stroke-dashoffset: 20} 94.222222% {stroke-dashoffset: 0} 100% {stroke-dashoffset: 0}} #eDzwkQcVZi81:hover #eDzwkQcVZi86 {animation: eDzwkQcVZi86_s_do 2250ms linear 1 normal forwards}@keyframes eDzwkQcVZi86_s_do { 0% {stroke-dashoffset: 0} 21.777778% {stroke-dashoffset: 20} 72.444444% {stroke-dashoffset: 20} 94.222222% {stroke-dashoffset: 0} 100% {stroke-dashoffset: 0}}]]></style><path d="M4,12h16v10h-16v-10Z" fill="none" stroke="#000" stroke-width="2" stroke-linecap="round" stroke-linejoin="round"/><g id="eDzwkQcVZi83_tr" transform="translate(2,12) rotate(0)"><path d="M22,7L2,7v5h20v-5Z" transform="translate(-2,-12)" fill="none" stroke="#000" stroke-width="2" stroke-linecap="round" stroke-linejoin="round"/></g><path id="eDzwkQcVZi84" d="M12,22v-15" fill="none" stroke="#000" stroke-width="2" stroke-linecap="round" stroke-linejoin="round" stroke-dasharray="18"/><path id="eDzwkQcVZi85" d="M12,7h4.5c.663,0,1.2989-.26339,1.7678-.73223C18.7366,5.79893,19,5.16304,19,4.5s-.2634-1.29893-.7322-1.76777C17.7989,2.26339,17.163,2,16.5,2C13,2,12,7,12,7Z" fill="none" stroke="#000" stroke-width="2" stroke-linecap="round" stroke-linejoin="round" stroke-dasharray="20"/><path id="eDzwkQcVZi86" d="M12,7h-4.5c-.66304,0-1.29893-.26339-1.76777-.73223s-.73223-1.10473-.73223-1.76777.26339-1.29893.73223-1.76777s1.10473-.73223,1.76777-.73223C11,2,12,7,12,7Z" fill="none" stroke="#000" stroke-width="2" stroke-linecap="round" stroke-linejoin="round" stroke-dasharray="20"/></svg>