<svg width="1440" height="377" viewBox="0 0 1440 377" fill="none" xmlns="http://www.w3.org/2000/svg">
<g clip-path="url(#clip0_369_8752)">
<g clip-path="url(#clip1_369_8752)">
<g clip-path="url(#clip2_369_8752)">
<g opacity="0.8">
<path d="M-43.8195 63.1286C-43.8195 63.1286 61.6341 -59.1131 117.976 60.7259C174.317 180.565 202.339 193.51 320.087 173.791C437.836 154.071 469.311 200.841 464.594 311.266C459.876 421.69 602.26 325.675 641.337 431.972" stroke="#1B5CFF" stroke-width="0.75" stroke-miterlimit="10"/>
<path d="M-46.6099 68.2948C-46.6099 68.2948 64.7812 -64.944 121.128 54.8707C177.475 174.685 201.906 198.511 319.655 178.792C437.404 159.072 467.504 203.893 462.774 314.314C458.045 424.736 596.182 337.331 638.559 437.14" stroke="#1B5CFF" stroke-width="0.75" stroke-miterlimit="10"/>
<path d="M-49.3848 73.4513C-49.3848 73.4513 67.9149 -70.8288 124.256 49.0103C180.598 168.849 201.45 203.507 319.198 183.788C436.947 164.068 465.624 206.928 460.943 317.36C456.263 427.792 590.105 348.988 635.735 442.287" stroke="#1B5CFF" stroke-width="0.75" stroke-miterlimit="10"/>
<path d="M-52.1625 78.6201C-52.1625 78.6201 71.0919 -76.6789 127.433 43.1602C183.775 162.999 201.042 208.514 318.793 188.782C436.545 169.05 463.79 209.987 459.1 320.404C454.41 430.821 584.08 360.643 633.007 447.466" stroke="#1B5CFF" stroke-width="0.75" stroke-miterlimit="10"/>
<path d="M-54.9379 83.7766C-54.9379 83.7766 74.2444 -82.5341 130.586 37.3049C186.927 157.144 200.61 213.515 318.3 193.77C435.99 174.025 461.944 213.042 457.254 323.459C452.564 433.877 577.969 372.279 630.219 452.62" stroke="#1B5CFF" stroke-width="0.75" stroke-miterlimit="10"/>
<path d="M-57.7157 88.9453C-57.7157 88.9453 77.3971 -88.3894 133.739 31.4497C190.08 151.289 200.177 218.516 317.88 198.774C435.582 179.032 460.052 216.076 455.374 326.495C450.696 436.915 571.892 383.936 627.441 457.788" stroke="#1B5CFF" stroke-width="0.75" stroke-miterlimit="10"/>
<path d="M-60.5027 94.0992C-60.5027 94.0992 80.5501 -94.2446 136.889 25.6067C193.228 145.458 199.694 223.519 317.458 203.79C435.221 184.06 458.297 219.125 453.58 329.549C448.863 439.973 565.818 395.581 624.666 462.945" stroke="#1B5CFF" stroke-width="0.75" stroke-miterlimit="10"/>
<path d="M-63.2807 99.268C-63.2807 99.268 83.7026 -100.1 140.044 19.7392C196.386 139.578 199.277 228.51 317.04 208.781C434.804 189.052 456.402 222.17 451.675 332.58C446.949 442.989 559.694 407.215 621.813 468.11" stroke="#1B5CFF" stroke-width="0.75" stroke-miterlimit="10"/>
<path d="M-66.0559 104.424C-66.0559 104.424 86.9162 -105.942 143.258 13.8969C199.599 133.736 198.918 233.527 316.681 213.797C434.445 194.068 454.657 225.234 449.952 335.661C445.247 446.088 553.732 418.87 619.147 473.29" stroke="#1B5CFF" stroke-width="0.75" stroke-miterlimit="10"/>
<path d="M-68.8333 109.593C-68.8333 109.593 90.0081 -111.81 146.35 8.02874C202.691 127.868 198.426 238.566 316.198 218.8C433.969 199.035 452.75 228.277 448.057 338.706C443.364 449.136 547.604 430.529 616.324 478.436" stroke="#FF4658" stroke-width="0.75" stroke-miterlimit="10"/>
<path d="M-71.6113 114.762C-71.6113 114.762 93.158 -117.653 149.49 2.1709C205.822 121.995 198.007 243.506 315.768 223.789C433.529 204.072 450.909 231.308 446.228 341.74C441.548 452.172 541.53 442.173 613.546 483.605" stroke="#FF4658" stroke-width="0.75" stroke-miterlimit="10"/>
<path d="M-74.3986 119.916C-74.3986 119.916 96.3134 -123.521 152.643 -3.68434C208.972 116.152 197.587 248.51 315.348 228.793C433.109 209.076 449.075 234.367 444.383 344.796C439.69 455.225 535.453 453.83 610.771 488.761" stroke="#FFBA00" stroke-width="0.75" stroke-miterlimit="10"/>
<path d="M-77.1765 125.085C-77.1765 125.085 99.4633 -129.364 155.793 -9.52737C212.122 110.309 197.167 253.514 314.928 233.797C432.689 214.08 447.232 237.41 442.563 347.845C437.895 458.279 529.39 465.477 607.993 493.93" stroke="#FF4658" stroke-width="0.75" stroke-miterlimit="10"/>
<path d="M-79.9516 130.241C-79.9516 130.241 102.616 -135.219 158.945 -15.3826C215.275 104.454 196.747 258.517 314.511 238.788C432.274 219.059 445.388 240.453 440.647 350.872C435.905 461.291 523.316 477.121 605.205 499.084" stroke="#FF4658" stroke-width="0.75" stroke-miterlimit="10"/>
<path d="M-82.7293 135.41C-82.7293 135.41 105.756 -141.077 162.098 -21.2379C218.439 98.6012 196.327 263.521 314.091 243.792C431.854 224.063 443.604 243.522 438.853 353.926C434.101 464.33 517.239 488.778 602.428 504.253" stroke="#FF4658" stroke-width="0.75" stroke-miterlimit="10"/>
<path d="M-85.5165 140.564C-85.5165 140.564 108.909 -146.932 165.253 -27.1053C221.597 92.7215 195.91 268.512 313.612 248.77C431.315 229.028 441.722 246.506 437.034 356.975C432.345 467.443 511.131 500.403 599.653 509.409" stroke="#FF4658" stroke-width="0.75" stroke-miterlimit="10"/>
<path d="M-88.2945 145.733C-88.2945 145.733 112.062 -152.787 168.403 -32.9483C224.745 86.8907 195.365 273.503 313.129 253.773C430.892 234.044 439.819 249.588 435.146 359.984C430.474 470.379 505.098 512.03 596.833 514.531" stroke="#FFBA00" stroke-width="0.75" stroke-miterlimit="10"/>
<path d="M-91.0696 150.889C-91.0696 150.889 115.215 -158.643 171.556 -38.8036C227.898 81.0355 194.994 278.516 312.745 258.785C430.497 239.053 438.035 252.657 433.344 363.074C428.654 473.491 499.023 523.738 594.097 519.747" stroke="#FFBA00" stroke-width="0.75" stroke-miterlimit="10"/>
<path d="M-93.8475 156.058C-93.8475 156.058 118.367 -164.498 174.709 -44.6589C231.05 75.1802 194.525 283.51 312.289 263.781C430.052 244.051 436.191 255.7 431.508 366.145C426.825 476.589 492.951 535.371 591.309 524.901" stroke="#FFBA00" stroke-width="0.75" stroke-miterlimit="10"/>
<path d="M-96.6226 161.214C-96.6226 161.214 121.522 -170.365 177.861 -50.5141C234.2 69.3372 194.13 288.519 311.873 268.823C429.617 249.128 434.352 258.783 429.66 369.212C424.967 479.642 486.877 547.015 588.532 530.07" stroke="#FFBA00" stroke-width="0.75" stroke-miterlimit="10"/>
</g>
</g>
<rect width="452" height="491" transform="matrix(-0.849136 -0.528174 -0.528174 0.849136 766.708 251.635)" fill="url(#paint0_linear_369_8752)"/>
<rect x="237.15" y="-150.379" width="181" height="366" transform="rotate(31.8821 237.15 -150.379)" fill="url(#paint1_linear_369_8752)"/>
</g>
<g clip-path="url(#clip3_369_8752)">
<g clip-path="url(#clip4_369_8752)">
<g opacity="0.8">
<path d="M678.477 512.406C678.477 512.406 741.508 363.778 609.108 366.217C476.708 368.656 452.708 349.244 418.344 234.908C383.98 120.572 328.114 113.015 231.15 166.061C134.187 219.107 157.368 48.9468 44.7469 60.8848" stroke="#1B5CFF" stroke-width="0.75" stroke-miterlimit="10"/>
<path d="M675.076 517.193C675.076 517.193 745.347 358.377 612.966 360.8C480.586 363.224 448.414 351.842 414.049 237.506C379.685 123.171 326.175 115.985 229.22 169.04C132.264 222.096 149.599 59.5508 41.3385 65.6614" stroke="#1B5CFF" stroke-width="0.75" stroke-miterlimit="10"/>
<path d="M671.677 521.962C671.677 521.962 749.24 352.965 616.84 355.404C484.439 357.843 444.134 354.46 409.769 240.125C375.405 125.789 324.283 119.013 227.297 172.029C130.31 225.046 141.829 70.1548 37.9706 70.4694" stroke="#1B5CFF" stroke-width="0.75" stroke-miterlimit="10"/>
<path d="M668.269 526.738C668.269 526.738 753.083 347.529 620.683 349.968C488.282 352.407 439.824 357.039 405.469 242.696C371.114 128.352 322.351 122.01 225.382 175.028C128.413 228.047 134.039 80.7117 34.5314 75.2067" stroke="#1B5CFF" stroke-width="0.75" stroke-miterlimit="10"/>
<path d="M664.871 531.507C664.871 531.507 756.942 342.112 624.541 344.552C492.141 346.991 435.529 359.638 401.213 245.343C366.897 131.049 320.426 125.016 223.457 178.035C126.488 231.053 126.303 91.3374 31.1409 79.9853" stroke="#1B5CFF" stroke-width="0.75" stroke-miterlimit="10"/>
<path d="M661.462 536.283C661.462 536.283 760.8 336.696 628.4 339.135C495.999 341.575 431.234 362.236 396.911 247.932C362.587 133.627 318.542 128.054 221.565 181.063C124.588 234.072 118.533 101.941 27.7326 84.7618" stroke="#1B5CFF" stroke-width="0.75" stroke-miterlimit="10"/>
<path d="M658.071 541.062C658.071 541.062 764.658 331.28 632.248 333.727C499.838 336.174 426.96 364.882 392.598 250.528C358.236 136.175 316.582 130.977 219.619 184.023C122.656 237.069 110.773 112.538 24.3339 89.5306" stroke="#1B5CFF" stroke-width="0.75" stroke-miterlimit="10"/>
<path d="M654.663 545.839C654.663 545.839 768.516 325.864 636.116 328.303C503.716 330.742 422.668 367.463 388.305 253.109C353.943 138.756 314.688 134.023 217.742 187.071C120.797 240.119 103.045 123.173 20.962 94.3737" stroke="#1B5CFF" stroke-width="0.75" stroke-miterlimit="10"/>
<path d="M651.265 550.607C651.265 550.607 772.336 320.398 639.936 322.837C507.536 325.277 418.327 370.002 383.964 255.649C349.602 141.295 312.712 136.943 215.741 189.979C118.77 243.015 95.2256 133.673 17.4942 99.0542" stroke="#1B5CFF" stroke-width="0.75" stroke-miterlimit="10"/>
<path d="M647.856 555.384C647.856 555.384 776.233 315.031 643.833 317.47C511.433 319.91 414.023 372.671 379.69 258.294C345.357 143.918 310.825 139.999 213.846 193.025C116.868 246.051 87.477 144.324 14.1264 103.862" stroke="#FF4658" stroke-width="0.75" stroke-miterlimit="10"/>
<path d="M644.448 560.16C644.448 560.16 780.082 309.622 647.699 312.064C515.317 314.505 409.778 375.231 375.406 260.885C341.033 146.539 308.92 142.99 211.934 196.006C114.947 249.023 79.7176 154.92 10.7183 108.639" stroke="#FF4658" stroke-width="0.75" stroke-miterlimit="10"/>
<path d="M641.057 564.939C641.057 564.939 783.95 304.198 651.558 306.647C519.165 309.097 405.475 377.819 371.103 263.474C336.731 149.128 306.987 145.986 210.009 199.013C113.03 252.039 71.9481 165.524 7.31968 113.408" stroke="#FFBA00" stroke-width="0.75" stroke-miterlimit="10"/>
<path d="M637.649 569.715C637.649 569.715 787.799 298.79 655.406 301.239C523.014 303.688 401.173 380.408 366.801 266.062C332.428 151.716 305.073 148.985 208.078 201.992C111.084 254.998 64.1809 176.111 3.91151 118.184" stroke="#FF4658" stroke-width="0.75" stroke-miterlimit="10"/>
<path d="M634.25 574.484C634.25 574.484 791.657 293.374 659.264 295.823C526.872 298.272 396.87 382.997 362.508 268.643C328.145 154.29 303.157 151.984 206.209 205.05C109.262 258.115 56.4212 186.707 0.520611 122.963" stroke="#FF4658" stroke-width="0.75" stroke-miterlimit="10"/>
<path d="M630.842 579.261C630.842 579.261 795.523 287.967 663.123 290.406C530.723 292.846 392.568 385.585 358.205 271.232C323.843 156.878 301.194 154.942 204.264 208.009C107.333 261.077 48.6518 197.311 -2.88772 127.739" stroke="#FF4658" stroke-width="0.75" stroke-miterlimit="10"/>
<path d="M627.451 584.039C627.451 584.039 799.382 282.551 666.991 284.982C534.601 287.414 388.275 388.166 353.951 273.862C319.627 159.557 299.349 157.949 202.333 210.988C105.317 264.028 40.9253 207.929 -6.28604 132.508" stroke="#FF4658" stroke-width="0.75" stroke-miterlimit="10"/>
<path d="M624.043 588.816C624.043 588.816 803.24 277.134 670.84 279.574C538.44 282.013 384.04 390.861 349.677 276.507C315.315 162.154 297.426 161.018 200.469 214.011C103.512 267.004 33.1622 218.48 -9.63404 137.301" stroke="#FFBA00" stroke-width="0.75" stroke-miterlimit="10"/>
<path d="M620.644 593.585C620.644 593.585 807.098 271.718 674.698 274.157C542.298 276.597 379.706 393.41 345.352 279.066C310.997 164.723 295.462 163.975 198.493 216.994C101.524 270.012 25.3456 229.105 -13.1029 142.061" stroke="#FFBA00" stroke-width="0.75" stroke-miterlimit="10"/>
<path d="M617.236 598.361C617.236 598.361 810.957 266.302 678.556 268.741C546.156 271.181 375.435 396.038 341.072 281.685C306.71 167.331 293.547 166.974 196.551 219.998C99.5545 273.022 17.5959 239.694 -16.4936 146.84" stroke="#FFBA00" stroke-width="0.75" stroke-miterlimit="10"/>
<path d="M613.837 603.13C613.837 603.13 814.825 260.878 682.414 263.325C550.004 265.772 371.116 398.607 336.732 284.286C302.348 169.966 291.595 169.986 194.616 223.013C97.637 276.039 9.83598 250.29 -19.9022 151.616" stroke="#FFBA00" stroke-width="0.75" stroke-miterlimit="10"/>
</g>
</g>
<rect x="151.083" y="-131.291" width="268.827" height="491" transform="rotate(31.8821 151.083 -131.291)" fill="url(#paint2_linear_369_8752)"/>
<rect width="181" height="366" transform="matrix(-0.849136 -0.528174 -0.528174 0.849136 745.783 165.997)" fill="url(#paint3_linear_369_8752)"/>
</g>
<g clip-path="url(#clip5_369_8752)">
<g clip-path="url(#clip6_369_8752)">
<g opacity="0.8">
<path d="M1483.38 63.1286C1483.38 63.1286 1377.92 -59.1131 1321.58 60.7259C1265.24 180.565 1237.22 193.51 1119.47 173.791C1001.72 154.071 970.247 200.841 974.964 311.266C979.682 421.69 837.299 325.675 798.221 431.972" stroke="#1B5CFF" stroke-width="0.75" stroke-miterlimit="10"/>
<path d="M1486.17 68.2948C1486.17 68.2948 1374.78 -64.944 1318.43 54.8707C1262.08 174.685 1237.65 198.511 1119.9 178.792C1002.15 159.072 972.054 203.893 976.784 314.314C981.513 424.736 843.376 337.331 800.999 437.14" stroke="#1B5CFF" stroke-width="0.75" stroke-miterlimit="10"/>
<path d="M1488.94 73.4513C1488.94 73.4513 1371.64 -70.8288 1315.3 49.0103C1258.96 168.849 1238.11 203.507 1120.36 183.788C1002.61 164.068 973.934 206.928 978.615 317.36C983.295 427.792 849.453 348.988 803.823 442.287" stroke="#1B5CFF" stroke-width="0.75" stroke-miterlimit="10"/>
<path d="M1491.72 78.6201C1491.72 78.6201 1368.47 -76.6789 1312.12 43.1602C1255.78 162.999 1238.52 208.514 1120.76 188.782C1003.01 169.05 975.768 209.987 980.458 320.404C985.148 430.821 855.478 360.643 806.552 447.466" stroke="#1B5CFF" stroke-width="0.75" stroke-miterlimit="10"/>
<path d="M1494.5 83.7766C1494.5 83.7766 1365.31 -82.5341 1308.97 37.3049C1252.63 157.144 1238.95 213.515 1121.26 193.77C1003.57 174.025 977.614 213.042 982.304 323.459C986.994 433.877 861.589 372.279 809.339 452.62" stroke="#1B5CFF" stroke-width="0.75" stroke-miterlimit="10"/>
<path d="M1497.27 88.9453C1497.27 88.9453 1362.16 -88.3894 1305.82 31.4497C1249.48 151.289 1239.38 218.516 1121.68 198.774C1003.98 179.032 979.506 216.076 984.184 326.495C988.862 436.915 867.666 383.936 812.117 457.788" stroke="#1B5CFF" stroke-width="0.75" stroke-miterlimit="10"/>
<path d="M1500.06 94.0992C1500.06 94.0992 1359.01 -94.2446 1302.67 25.6067C1246.33 145.458 1239.86 223.519 1122.1 203.79C1004.34 184.06 981.261 219.125 985.978 329.549C990.695 439.973 873.74 395.581 814.892 462.945" stroke="#1B5CFF" stroke-width="0.75" stroke-miterlimit="10"/>
<path d="M1502.84 99.268C1502.84 99.268 1355.86 -100.1 1299.51 19.7392C1243.17 139.578 1240.28 228.51 1122.52 208.781C1004.75 189.052 983.156 222.17 987.883 332.58C992.61 442.989 879.864 407.215 817.746 468.11" stroke="#1B5CFF" stroke-width="0.75" stroke-miterlimit="10"/>
<path d="M1505.61 104.424C1505.61 104.424 1352.64 -105.942 1296.3 13.8969C1239.96 133.736 1240.64 233.527 1122.88 213.797C1005.11 194.068 984.902 225.234 989.607 335.661C994.311 446.088 885.826 418.87 820.411 473.29" stroke="#1B5CFF" stroke-width="0.75" stroke-miterlimit="10"/>
<path d="M1508.39 109.593C1508.39 109.593 1349.55 -111.81 1293.21 8.02874C1236.87 127.868 1241.13 238.566 1123.36 218.8C1005.59 199.035 986.808 228.277 991.501 338.706C996.194 449.136 891.954 430.529 823.235 478.436" stroke="#FF4658" stroke-width="0.75" stroke-miterlimit="10"/>
<path d="M1511.17 114.762C1511.17 114.762 1346.4 -117.653 1290.07 2.1709C1233.74 121.995 1241.55 243.506 1123.79 223.789C1006.03 204.072 988.649 231.308 993.33 341.74C998.01 452.172 898.029 442.173 826.012 483.605" stroke="#FF4658" stroke-width="0.75" stroke-miterlimit="10"/>
<path d="M1513.96 119.916C1513.96 119.916 1343.24 -123.521 1286.92 -3.68434C1230.59 116.152 1241.97 248.51 1124.21 228.793C1006.45 209.076 990.483 234.367 995.176 344.796C999.868 455.225 904.105 453.83 828.788 488.761" stroke="#FFBA00" stroke-width="0.75" stroke-miterlimit="10"/>
<path d="M1516.73 125.085C1516.73 125.085 1340.09 -129.364 1283.77 -9.52737C1227.44 110.309 1242.39 253.514 1124.63 233.797C1006.87 214.08 992.326 237.41 996.995 347.845C1001.66 458.279 910.168 465.477 831.565 493.93" stroke="#FF4658" stroke-width="0.75" stroke-miterlimit="10"/>
<path d="M1519.51 130.241C1519.51 130.241 1336.94 -135.219 1280.61 -15.3826C1224.28 104.454 1242.81 258.517 1125.05 238.788C1007.28 219.059 994.17 240.453 998.911 350.872C1003.65 461.291 916.242 477.121 834.353 499.084" stroke="#FF4658" stroke-width="0.75" stroke-miterlimit="10"/>
<path d="M1522.29 135.41C1522.29 135.41 1333.8 -141.077 1277.46 -21.2379C1221.12 98.6012 1243.23 263.521 1125.47 243.792C1007.7 224.063 995.954 243.522 1000.71 353.926C1005.46 464.33 922.319 488.778 837.13 504.253" stroke="#FF4658" stroke-width="0.75" stroke-miterlimit="10"/>
<path d="M1525.07 140.564C1525.07 140.564 1330.65 -146.932 1274.3 -27.1053C1217.96 92.7215 1243.65 268.512 1125.95 248.77C1008.24 229.028 997.836 246.506 1002.52 356.975C1007.21 467.443 928.427 500.403 839.906 509.409" stroke="#FF4658" stroke-width="0.75" stroke-miterlimit="10"/>
<path d="M1527.85 145.733C1527.85 145.733 1327.5 -152.787 1271.15 -32.9483C1214.81 86.8907 1244.19 273.503 1126.43 253.773C1008.67 234.044 999.739 249.588 1004.41 359.984C1009.08 470.379 934.46 512.03 842.725 514.531" stroke="#FFBA00" stroke-width="0.75" stroke-miterlimit="10"/>
<path d="M1530.63 150.889C1530.63 150.889 1324.34 -158.643 1268 -38.8036C1211.66 81.0355 1244.56 278.516 1126.81 258.785C1009.06 239.053 1001.52 252.657 1006.21 363.074C1010.9 473.491 940.535 523.738 845.461 519.747" stroke="#FFBA00" stroke-width="0.75" stroke-miterlimit="10"/>
<path d="M1533.41 156.058C1533.41 156.058 1321.19 -164.498 1264.85 -44.6589C1208.51 75.1802 1245.03 283.51 1127.27 263.781C1009.51 244.051 1003.37 255.7 1008.05 366.145C1012.73 476.589 946.607 535.371 848.249 524.901" stroke="#FFBA00" stroke-width="0.75" stroke-miterlimit="10"/>
<path d="M1536.18 161.214C1536.18 161.214 1318.04 -170.365 1261.7 -50.5141C1205.36 69.3372 1245.43 288.519 1127.68 268.823C1009.94 249.128 1005.21 258.783 1009.9 369.212C1014.59 479.642 952.681 547.015 851.026 530.07" stroke="#FFBA00" stroke-width="0.75" stroke-miterlimit="10"/>
</g>
</g>
<rect x="672.851" y="251.635" width="452" height="491" transform="rotate(-31.8821 672.851 251.635)" fill="url(#paint4_linear_369_8752)"/>
<rect width="181" height="366" transform="matrix(-0.849136 0.528174 0.528174 0.849136 1202.41 -150.379)" fill="url(#paint5_linear_369_8752)"/>
</g>
<g clip-path="url(#clip7_369_8752)">
<g clip-path="url(#clip8_369_8752)">
<g opacity="0.8">
<path d="M761.082 512.406C761.082 512.406 698.05 363.778 830.45 366.217C962.851 368.656 986.85 349.244 1021.21 234.908C1055.58 120.572 1111.44 113.015 1208.41 166.061C1305.37 219.107 1282.19 48.9468 1394.81 60.8848" stroke="#1B5CFF" stroke-width="0.75" stroke-miterlimit="10"/>
<path d="M764.482 517.193C764.482 517.193 694.211 358.377 826.592 360.8C958.973 363.224 991.144 351.842 1025.51 237.506C1059.87 123.171 1113.38 115.985 1210.34 169.04C1307.29 222.096 1289.96 59.5508 1398.22 65.6614" stroke="#1B5CFF" stroke-width="0.75" stroke-miterlimit="10"/>
<path d="M767.881 521.962C767.881 521.962 690.318 352.965 822.718 355.404C955.119 357.843 995.424 354.46 1029.79 240.125C1064.15 125.789 1115.27 119.013 1212.26 172.029C1309.25 225.046 1297.73 70.1548 1401.59 70.4694" stroke="#1B5CFF" stroke-width="0.75" stroke-miterlimit="10"/>
<path d="M771.289 526.738C771.289 526.738 686.475 347.529 818.875 349.968C951.276 352.407 999.734 357.039 1034.09 242.696C1068.44 128.352 1117.21 122.01 1214.18 175.028C1311.15 228.047 1305.52 80.7117 1405.03 75.2067" stroke="#1B5CFF" stroke-width="0.75" stroke-miterlimit="10"/>
<path d="M774.687 531.507C774.687 531.507 682.617 342.112 815.017 344.552C947.417 346.991 1004.03 359.638 1038.34 245.343C1072.66 131.049 1119.13 125.016 1216.1 178.035C1313.07 231.053 1313.26 91.3374 1408.42 79.9853" stroke="#1B5CFF" stroke-width="0.75" stroke-miterlimit="10"/>
<path d="M778.096 536.283C778.096 536.283 678.758 336.696 811.158 339.135C943.559 341.575 1008.32 362.236 1042.65 247.932C1076.97 133.627 1121.02 128.054 1217.99 181.063C1314.97 234.072 1321.02 101.941 1411.83 84.7618" stroke="#1B5CFF" stroke-width="0.75" stroke-miterlimit="10"/>
<path d="M781.487 541.062C781.487 541.062 674.9 331.28 807.31 333.727C939.72 336.174 1012.6 364.882 1046.96 250.528C1081.32 136.175 1122.98 130.977 1219.94 184.023C1316.9 237.069 1328.78 112.538 1415.22 89.5306" stroke="#1B5CFF" stroke-width="0.75" stroke-miterlimit="10"/>
<path d="M784.895 545.839C784.895 545.839 671.042 325.864 803.442 328.303C935.842 330.742 1016.89 367.463 1051.25 253.109C1085.62 138.756 1124.87 134.023 1221.82 187.071C1318.76 240.119 1336.51 123.173 1418.6 94.3737" stroke="#1B5CFF" stroke-width="0.75" stroke-miterlimit="10"/>
<path d="M788.293 550.607C788.293 550.607 667.222 320.398 799.622 322.837C932.022 325.277 1021.23 370.002 1055.59 255.649C1089.96 141.295 1126.85 136.943 1223.82 189.979C1320.79 243.015 1344.33 133.673 1422.06 99.0542" stroke="#1B5CFF" stroke-width="0.75" stroke-miterlimit="10"/>
<path d="M791.702 555.384C791.702 555.384 663.325 315.031 795.725 317.47C928.125 319.91 1025.53 372.671 1059.87 258.294C1094.2 143.918 1128.73 139.999 1225.71 193.025C1322.69 246.051 1352.08 144.324 1425.43 103.862" stroke="#FF4658" stroke-width="0.75" stroke-miterlimit="10"/>
<path d="M795.11 560.16C795.11 560.16 659.476 309.622 791.859 312.064C924.242 314.505 1029.78 375.231 1064.15 260.885C1098.52 146.539 1130.64 142.99 1227.62 196.006C1324.61 249.023 1359.84 154.92 1428.84 108.639" stroke="#FF4658" stroke-width="0.75" stroke-miterlimit="10"/>
<path d="M798.501 564.939C798.501 564.939 655.608 304.198 788.001 306.647C920.393 309.097 1034.08 377.819 1068.46 263.474C1102.83 149.128 1132.57 145.986 1229.55 199.013C1326.53 252.039 1367.61 165.524 1432.24 113.408" stroke="#FFBA00" stroke-width="0.75" stroke-miterlimit="10"/>
<path d="M801.909 569.715C801.909 569.715 651.759 298.79 784.152 301.239C916.544 303.688 1038.39 380.408 1072.76 266.062C1107.13 151.716 1134.49 148.985 1231.48 201.992C1328.47 254.998 1375.38 176.111 1435.65 118.184" stroke="#FF4658" stroke-width="0.75" stroke-miterlimit="10"/>
<path d="M805.308 574.484C805.308 574.484 647.901 293.374 780.294 295.823C912.686 298.272 1042.69 382.997 1077.05 268.643C1111.41 154.29 1136.4 151.984 1233.35 205.05C1330.3 258.115 1383.14 186.707 1439.04 122.963" stroke="#FF4658" stroke-width="0.75" stroke-miterlimit="10"/>
<path d="M808.716 579.261C808.716 579.261 644.035 287.967 776.435 290.406C908.835 292.846 1046.99 385.585 1081.35 271.232C1115.72 156.878 1138.36 154.942 1235.29 208.009C1332.22 261.077 1390.91 197.311 1442.45 127.739" stroke="#FF4658" stroke-width="0.75" stroke-miterlimit="10"/>
<path d="M812.107 584.039C812.107 584.039 640.176 282.551 772.567 284.982C904.957 287.414 1051.28 388.166 1085.61 273.862C1119.93 159.557 1140.21 157.949 1237.22 210.988C1334.24 264.028 1398.63 207.929 1445.84 132.508" stroke="#FF4658" stroke-width="0.75" stroke-miterlimit="10"/>
<path d="M815.515 588.816C815.515 588.816 636.318 277.134 768.718 279.574C901.119 282.013 1055.52 390.861 1089.88 276.507C1124.24 162.154 1142.13 161.018 1239.09 214.011C1336.05 267.004 1406.4 218.48 1449.19 137.301" stroke="#FFBA00" stroke-width="0.75" stroke-miterlimit="10"/>
<path d="M818.914 593.585C818.914 593.585 632.46 271.718 764.86 274.157C897.26 276.597 1059.85 393.41 1094.21 279.066C1128.56 164.723 1144.1 163.975 1241.07 216.994C1338.03 270.012 1414.21 229.105 1452.66 142.061" stroke="#FFBA00" stroke-width="0.75" stroke-miterlimit="10"/>
<path d="M822.322 598.361C822.322 598.361 628.601 266.302 761.002 268.741C893.402 271.181 1064.12 396.038 1098.49 281.685C1132.85 167.331 1146.01 166.974 1243.01 219.998C1340 273.022 1421.96 239.694 1456.05 146.84" stroke="#FFBA00" stroke-width="0.75" stroke-miterlimit="10"/>
<path d="M825.721 603.13C825.721 603.13 624.734 260.878 757.144 263.325C889.554 265.772 1068.44 398.607 1102.83 284.286C1137.21 169.966 1147.96 169.986 1244.94 223.013C1341.92 276.039 1429.72 250.29 1459.46 151.616" stroke="#FFBA00" stroke-width="0.75" stroke-miterlimit="10"/>
</g>
</g>
<rect width="268.827" height="491" transform="matrix(-0.849136 0.528174 0.528174 0.849136 1288.47 -131.291)" fill="url(#paint6_linear_369_8752)"/>
<rect x="693.775" y="165.997" width="181" height="366" transform="rotate(-31.8821 693.775 165.997)" fill="url(#paint7_linear_369_8752)"/>
</g>
</g>
<defs>
<linearGradient id="paint0_linear_369_8752" x1="103.383" y1="277" x2="363.5" y2="277" gradientUnits="userSpaceOnUse">
<stop stop-color="#141417"/>
<stop offset="1" stop-color="#141417" stop-opacity="0"/>
</linearGradient>
<linearGradient id="paint1_linear_369_8752" x1="298.268" y1="55.7791" x2="374.131" y2="55.7863" gradientUnits="userSpaceOnUse">
<stop stop-color="#141417"/>
<stop offset="1" stop-color="#141417" stop-opacity="0"/>
</linearGradient>
<linearGradient id="paint2_linear_369_8752" x1="244.939" y1="144.541" x2="367.275" y2="145.709" gradientUnits="userSpaceOnUse">
<stop stop-color="#141417"/>
<stop offset="1" stop-color="#141417" stop-opacity="0"/>
</linearGradient>
<linearGradient id="paint3_linear_369_8752" x1="61.1179" y1="206.159" x2="136.98" y2="206.166" gradientUnits="userSpaceOnUse">
<stop stop-color="#141417"/>
<stop offset="1" stop-color="#141417" stop-opacity="0"/>
</linearGradient>
<linearGradient id="paint4_linear_369_8752" x1="776.234" y1="528.635" x2="1036.35" y2="528.635" gradientUnits="userSpaceOnUse">
<stop stop-color="#141417"/>
<stop offset="1" stop-color="#141417" stop-opacity="0"/>
</linearGradient>
<linearGradient id="paint5_linear_369_8752" x1="61.1179" y1="206.159" x2="136.98" y2="206.166" gradientUnits="userSpaceOnUse">
<stop stop-color="#141417"/>
<stop offset="1" stop-color="#141417" stop-opacity="0"/>
</linearGradient>
<linearGradient id="paint6_linear_369_8752" x1="93.8557" y1="275.832" x2="216.192" y2="277" gradientUnits="userSpaceOnUse">
<stop stop-color="#141417"/>
<stop offset="1" stop-color="#141417" stop-opacity="0"/>
</linearGradient>
<linearGradient id="paint7_linear_369_8752" x1="754.893" y1="372.155" x2="830.756" y2="372.162" gradientUnits="userSpaceOnUse">
<stop stop-color="#141417"/>
<stop offset="1" stop-color="#141417" stop-opacity="0"/>
</linearGradient>
<clipPath id="clip0_369_8752">
<rect width="1440" height="377" fill="white"/>
</clipPath>
<clipPath id="clip1_369_8752">
<rect width="569" height="302" fill="white" transform="matrix(-0.849136 -0.528174 -0.528174 0.849136 671.717 228.272)"/>
</clipPath>
<clipPath id="clip2_369_8752">
<rect width="778.847" height="514.986" fill="white" transform="matrix(-0.978364 -0.206893 -0.206893 0.978364 723.575 45.0151)"/>
</clipPath>
<clipPath id="clip3_369_8752">
<rect width="569" height="357" fill="white" transform="translate(214.032 -56.4137) rotate(31.8821)"/>
</clipPath>
<clipPath id="clip4_369_8752">
<rect width="778.847" height="514.986" fill="white" transform="translate(355.486 -183.941) rotate(51.8239)"/>
</clipPath>
<clipPath id="clip5_369_8752">
<rect width="569" height="302" fill="white" transform="translate(767.841 228.272) rotate(-31.8821)"/>
</clipPath>
<clipPath id="clip6_369_8752">
<rect width="778.847" height="514.986" fill="white" transform="translate(715.983 45.0151) rotate(-11.9403)"/>
</clipPath>
<clipPath id="clip7_369_8752">
<rect width="569" height="357" fill="white" transform="matrix(-0.849136 0.528174 0.528174 0.849136 1225.53 -56.4137)"/>
</clipPath>
<clipPath id="clip8_369_8752">
<rect width="778.847" height="514.986" fill="white" transform="matrix(-0.61808 0.786115 0.786115 0.61808 1084.07 -183.941)"/>
</clipPath>
</defs>
</svg>
