<svg width="1439" height="302" viewBox="0 0 1439 302" fill="none" xmlns="http://www.w3.org/2000/svg">
<g clip-path="url(#clip0_374_8852)">
<g opacity="0.8" clip-path="url(#clip1_374_8852)">
<g opacity="0.8">
<path d="M1564.81 237.698C1564.81 237.698 1539.83 78.2007 1428.7 150.202C1317.56 222.204 1286.93 218.396 1197.36 139.46C1107.79 60.5233 1056.36 83.6135 1002.04 179.87C947.723 276.127 877.534 119.394 788.208 189.015" stroke="#170532" stroke-width="0.75" stroke-miterlimit="10"/>
<path d="M1564.45 243.559C1564.45 243.559 1540.24 71.5871 1429.11 143.565C1317.98 215.543 1284.65 222.871 1195.08 143.935C1105.51 64.9982 1056.28 87.1587 1001.98 183.42C947.669 279.681 876.537 132.502 787.836 194.871" stroke="#1D0E3D" stroke-width="0.75" stroke-miterlimit="10"/>
<path d="M1564.09 249.403C1564.09 249.403 1540.69 64.9351 1429.55 136.937C1318.41 208.938 1282.4 227.354 1192.83 148.418C1103.26 69.4816 1056.27 90.7294 1001.92 186.973C947.569 283.217 875.54 145.609 787.516 200.732" stroke="#221647" stroke-width="0.75" stroke-miterlimit="10"/>
<path d="M1563.71 255.259C1563.71 255.259 1541.08 58.2896 1429.94 130.291C1318.8 202.293 1280.1 231.821 1190.54 152.873C1100.97 73.9244 1056.22 94.2948 1001.88 190.531C947.542 286.768 874.501 158.688 787.098 206.571" stroke="#281F52" stroke-width="0.75" stroke-miterlimit="10"/>
<path d="M1563.35 261.104C1563.35 261.104 1541.5 51.6525 1430.36 123.654C1319.22 195.656 1277.83 236.296 1188.32 157.369C1098.82 78.4419 1056.17 97.8644 1001.83 194.101C947.496 290.337 873.544 171.797 786.743 212.42" stroke="#2E275D" stroke-width="0.75" stroke-miterlimit="10"/>
<path d="M1562.98 266.96C1562.98 266.96 1541.91 45.0155 1430.77 117.017C1319.64 189.019 1275.55 240.77 1186.04 161.839C1096.52 82.9082 1056.17 101.439 1001.83 197.672C947.477 293.904 872.547 184.905 786.371 218.276" stroke="#333068" stroke-width="0.75" stroke-miterlimit="10"/>
<path d="M1562.62 272.808C1562.62 272.808 1542.33 38.3784 1431.18 110.392C1320.04 182.405 1273.32 245.274 1183.75 166.322C1094.17 87.3693 1056.05 104.956 1001.74 201.212C947.419 297.469 871.555 198.001 786.004 224.12" stroke="#393872" stroke-width="0.75" stroke-miterlimit="10"/>
<path d="M1562.25 278.665C1562.25 278.665 1542.74 31.7414 1431.6 103.743C1320.47 175.745 1271.04 249.733 1181.46 170.781C1091.89 91.8282 1056.05 108.542 1001.75 204.792C947.451 301.041 870.61 211.114 785.699 230.014" stroke="#3F417D" stroke-width="0.75" stroke-miterlimit="10"/>
<path d="M1561.88 284.509C1561.88 284.509 1543.1 25.083 1431.96 97.0846C1320.82 169.086 1268.7 254.182 1179.12 175.23C1089.54 96.2774 1055.92 112.066 1001.59 208.319C947.26 304.571 869.516 224.16 785.227 235.82" stroke="#444A88" stroke-width="0.75" stroke-miterlimit="10"/>
<path d="M1561.51 290.365C1561.51 290.365 1543.57 18.4673 1432.44 90.4689C1321.3 162.47 1266.45 258.721 1176.89 179.733C1087.32 100.746 1055.93 115.657 1001.59 211.905C947.248 308.153 868.562 237.297 784.907 241.681" stroke="#4A5293" stroke-width="0.75" stroke-miterlimit="10"/>
<path d="M1561.14 296.221C1561.14 296.221 1543.98 11.8419 1432.86 83.8361C1321.74 155.83 1264.2 263.137 1174.62 184.197C1085.04 105.256 1055.89 119.203 1001.54 215.447C947.187 311.691 867.57 250.393 784.535 247.537" stroke="#505B9D" stroke-width="0.75" stroke-miterlimit="10"/>
<path d="M1560.78 302.07C1560.78 302.07 1544.4 5.19314 1433.28 77.199C1322.15 149.205 1261.91 267.608 1172.33 188.667C1082.75 109.727 1055.83 122.769 1001.49 219.017C947.152 315.265 866.573 263.501 784.168 253.382" stroke="#5663A8" stroke-width="0.75" stroke-miterlimit="10"/>
<path d="M1560.41 307.926C1560.41 307.926 1544.82 -1.4322 1433.69 70.5737C1322.56 142.58 1259.63 272.078 1170.04 193.138C1080.46 114.197 1055.79 126.327 1001.43 222.566C947.063 318.806 865.569 276.593 783.797 259.238" stroke="#5B6CB3" stroke-width="0.75" stroke-miterlimit="10"/>
<path d="M1560.05 313.77C1560.05 313.77 1545.23 -8.06925 1434.1 63.9366C1322.98 135.942 1257.34 276.549 1167.76 197.597C1078.19 118.644 1055.75 129.885 1001.46 226.15C947.161 322.415 864.577 289.689 783.442 265.086" stroke="#6175BE" stroke-width="0.75" stroke-miterlimit="10"/>
<path d="M1559.68 319.626C1559.68 319.626 1545.66 -14.702 1434.52 57.2996C1323.38 129.301 1255.05 281.02 1165.48 202.067C1075.9 123.115 1055.64 133.433 1001.37 229.691C947.088 325.948 863.581 302.796 783.07 270.942" stroke="#677DC8" stroke-width="0.75" stroke-miterlimit="10"/>
<path d="M1559.32 325.475C1559.32 325.475 1546.07 -21.3391 1434.94 50.6508C1323.81 122.641 1252.77 285.479 1163.25 206.547C1073.73 127.616 1055.67 136.961 1001.3 233.24C946.935 329.519 862.628 315.893 782.703 276.787" stroke="#6C86D3" stroke-width="0.75" stroke-miterlimit="10"/>
<path d="M1558.95 331.331C1558.95 331.331 1546.49 -27.9762 1435.35 44.0254C1324.21 116.027 1250.6 290.003 1161.02 211.051C1071.44 132.099 1055.65 140.583 1001.31 236.792C946.974 333 861.608 328.953 782.392 282.625" stroke="#728EDE" stroke-width="0.75" stroke-miterlimit="10"/>
<path d="M1558.58 337.175C1558.58 337.175 1546.9 -34.6132 1435.77 37.3884C1324.63 109.39 1248.26 294.457 1158.7 215.509C1069.13 136.561 1055.55 144.131 1001.21 240.368C946.875 336.604 860.583 342.104 781.961 288.499" stroke="#7897E9" stroke-width="0.75" stroke-miterlimit="10"/>
<path d="M1558.21 343.031C1558.21 343.031 1547.32 -41.2502 1436.18 30.7513C1325.05 102.753 1246.03 298.945 1156.45 219.992C1066.87 141.04 1055.51 147.689 1001.15 243.945C946.792 340.2 859.595 355.188 781.605 294.348" stroke="#7D9FF3" stroke-width="0.75" stroke-miterlimit="10"/>
<path d="M1557.84 348.876C1557.84 348.876 1547.74 -47.899 1436.6 24.1143C1325.46 96.1276 1243.72 303.407 1154.14 224.494C1064.56 145.581 1055.44 151.278 1001.1 247.526C946.758 343.774 858.603 368.284 781.234 300.204" stroke="#83A8FE" stroke-width="0.75" stroke-miterlimit="10"/>
</g>
</g>
<rect x="777" y="-30.3329" width="452" height="491" fill="url(#paint0_linear_374_8852)"/>
<rect width="181" height="366" transform="matrix(-1 0 0 1 1439 -92)" fill="url(#paint1_linear_374_8852)"/>
</g>
<g clip-path="url(#clip2_374_8852)">
<g opacity="0.8" clip-path="url(#clip3_374_8852)">
<g opacity="0.8">
<path d="M-125.813 237.698C-125.813 237.698 -100.833 78.2007 10.3044 150.202C121.442 222.204 152.073 218.396 241.643 139.46C331.212 60.5233 382.641 83.6135 436.959 179.87C491.277 276.127 561.466 119.394 650.792 189.015" stroke="#170532" stroke-width="0.75" stroke-miterlimit="10"/>
<path d="M-125.453 243.559C-125.453 243.559 -101.24 71.5871 9.88901 143.565C121.018 215.543 154.348 222.871 243.917 143.935C333.487 64.9982 382.719 87.1587 437.025 183.42C491.331 279.681 562.463 132.502 651.164 194.871" stroke="#1D0E3D" stroke-width="0.75" stroke-miterlimit="10"/>
<path d="M-125.086 249.403C-125.086 249.403 -101.688 64.9351 9.44993 136.937C120.587 208.938 156.599 227.354 246.168 148.418C335.738 69.4816 382.726 90.7294 437.079 186.973C491.431 283.217 563.46 145.609 651.484 200.732" stroke="#221647" stroke-width="0.75" stroke-miterlimit="10"/>
<path d="M-124.715 255.259C-124.715 255.259 -102.08 58.2896 9.05785 130.291C120.195 202.293 158.897 231.821 248.462 152.873C338.027 73.9244 382.784 94.2948 437.121 190.531C491.458 286.768 564.499 158.688 651.902 206.571" stroke="#281F52" stroke-width="0.75" stroke-miterlimit="10"/>
<path d="M-124.348 261.104C-124.348 261.104 -102.495 51.6525 8.64226 123.654C119.78 195.656 161.171 236.296 250.678 157.369C340.184 78.4419 382.83 97.8644 437.167 194.101C491.504 290.337 565.456 171.797 652.257 212.42" stroke="#2E275D" stroke-width="0.75" stroke-miterlimit="10"/>
<path d="M-123.976 266.96C-123.976 266.96 -102.911 45.0155 8.2268 117.017C119.364 189.019 163.446 240.77 252.964 161.839C342.482 82.9082 382.826 101.439 437.174 197.672C491.523 293.904 566.453 184.905 652.629 218.276" stroke="#333068" stroke-width="0.75" stroke-miterlimit="10"/>
<path d="M-123.621 272.808C-123.621 272.808 -103.326 38.3784 7.81547 110.392C118.957 182.405 165.677 245.274 255.254 166.322C344.831 87.3693 382.946 104.956 437.264 201.212C491.581 297.469 567.445 198.001 652.996 224.12" stroke="#393872" stroke-width="0.75" stroke-miterlimit="10"/>
<path d="M-123.25 278.665C-123.25 278.665 -103.742 31.7414 7.3957 103.743C118.533 175.745 167.959 249.733 257.536 170.781C347.113 91.8282 382.946 108.542 437.247 204.792C491.549 301.041 568.39 211.114 653.301 230.014" stroke="#3F417D" stroke-width="0.75" stroke-miterlimit="10"/>
<path d="M-122.883 284.509C-122.883 284.509 -104.099 25.083 7.03861 97.0846C118.176 169.086 170.304 254.182 259.881 175.23C349.458 96.2774 383.081 112.066 437.411 208.319C491.74 304.571 569.484 224.16 653.773 235.82" stroke="#444A88" stroke-width="0.75" stroke-miterlimit="10"/>
<path d="M-122.511 290.365C-122.511 290.365 -104.573 18.4673 6.56456 90.4689C117.702 162.47 172.549 258.721 262.113 179.733C351.677 100.746 383.069 115.657 437.411 211.905C491.752 308.153 570.438 237.297 654.093 241.681" stroke="#4A5293" stroke-width="0.75" stroke-miterlimit="10"/>
<path d="M-122.14 296.221C-122.14 296.221 -104.984 11.8419 6.13728 83.8361C117.259 155.83 174.802 263.137 264.383 184.197C353.964 105.256 383.107 119.203 437.46 215.447C491.813 311.691 571.43 250.393 654.465 247.537" stroke="#505B9D" stroke-width="0.75" stroke-miterlimit="10"/>
<path d="M-121.785 302.07C-121.785 302.07 -105.404 5.19314 5.72174 77.199C116.847 149.205 177.088 267.608 266.669 188.667C356.25 109.727 383.166 122.769 437.507 219.017C491.848 315.265 572.427 263.501 654.832 253.382" stroke="#5663A8" stroke-width="0.75" stroke-miterlimit="10"/>
<path d="M-121.414 307.926C-121.414 307.926 -105.815 -1.4322 5.31038 70.5737C116.436 142.58 179.374 272.078 268.955 193.138C358.537 114.197 383.208 126.327 437.572 222.566C491.937 318.806 573.431 276.593 655.203 259.238" stroke="#5B6CB3" stroke-width="0.75" stroke-miterlimit="10"/>
<path d="M-121.046 313.77C-121.046 313.77 -106.231 -8.06925 4.89501 63.9366C116.021 135.942 181.661 276.549 271.238 197.597C360.814 118.644 383.25 129.885 437.544 226.15C491.839 322.415 574.423 289.689 655.558 265.086" stroke="#6175BE" stroke-width="0.75" stroke-miterlimit="10"/>
<path d="M-120.675 319.626C-120.675 319.626 -106.658 -14.702 4.47916 57.2996C115.617 129.301 183.947 281.02 273.523 202.067C363.1 123.115 383.355 133.433 437.633 229.691C491.912 325.948 575.419 302.796 655.93 270.942" stroke="#677DC8" stroke-width="0.75" stroke-miterlimit="10"/>
<path d="M-120.32 325.475C-120.32 325.475 -107.074 -21.3391 4.05959 50.6508C115.193 122.641 186.229 285.479 275.747 206.547C365.265 127.616 383.334 136.961 437.699 233.24C492.065 329.519 576.372 315.893 656.297 276.787" stroke="#6C86D3" stroke-width="0.75" stroke-miterlimit="10"/>
<path d="M-119.948 331.331C-119.948 331.331 -107.489 -27.9762 3.64837 44.0254C114.786 116.027 188.402 290.003 277.979 211.051C367.556 132.099 383.346 140.583 437.686 236.792C492.026 333 577.392 328.953 656.608 282.625" stroke="#728EDE" stroke-width="0.75" stroke-miterlimit="10"/>
<path d="M-119.581 337.175C-119.581 337.175 -107.905 -34.6132 3.23281 37.3884C114.37 109.39 190.735 294.457 280.3 215.509C369.865 136.561 383.451 144.131 437.788 240.368C492.125 336.604 578.417 342.104 657.039 288.499" stroke="#7897E9" stroke-width="0.75" stroke-miterlimit="10"/>
<path d="M-119.21 343.031C-119.21 343.031 -108.32 -41.2502 2.81715 30.7513C113.955 102.753 192.974 298.945 282.551 219.992C372.128 141.04 383.493 147.689 437.85 243.945C492.208 340.2 579.405 355.188 657.395 294.348" stroke="#7D9FF3" stroke-width="0.75" stroke-miterlimit="10"/>
<path d="M-118.843 348.876C-118.843 348.876 -108.74 -47.899 2.40167 24.1143C113.543 96.1276 195.284 303.407 284.862 224.494C374.44 145.581 383.56 151.278 437.901 247.526C492.242 343.774 580.397 368.284 657.766 300.204" stroke="#83A8FE" stroke-width="0.75" stroke-miterlimit="10"/>
</g>
</g>
<rect width="452" height="491" transform="matrix(-1 0 0 1 662 -30.3329)" fill="url(#paint2_linear_374_8852)"/>
<rect y="-92" width="181" height="366" fill="url(#paint3_linear_374_8852)"/>
</g>
<defs>
<linearGradient id="paint0_linear_374_8852" x1="880.383" y1="246.667" x2="1140.5" y2="246.667" gradientUnits="userSpaceOnUse">
<stop stop-color="#141417"/>
<stop offset="1" stop-color="#141417" stop-opacity="0"/>
</linearGradient>
<linearGradient id="paint1_linear_374_8852" x1="61.1179" y1="206.159" x2="136.98" y2="206.166" gradientUnits="userSpaceOnUse">
<stop stop-color="#141417"/>
<stop offset="1" stop-color="#141417" stop-opacity="0"/>
</linearGradient>
<linearGradient id="paint2_linear_374_8852" x1="103.383" y1="277" x2="363.5" y2="277" gradientUnits="userSpaceOnUse">
<stop stop-color="#141417"/>
<stop offset="1" stop-color="#141417" stop-opacity="0"/>
</linearGradient>
<linearGradient id="paint3_linear_374_8852" x1="61.1179" y1="114.159" x2="136.98" y2="114.166" gradientUnits="userSpaceOnUse">
<stop stop-color="#141417"/>
<stop offset="1" stop-color="#141417" stop-opacity="0"/>
</linearGradient>
<clipPath id="clip0_374_8852">
<rect width="569" height="302" fill="white" transform="translate(870)"/>
</clipPath>
<clipPath id="clip1_374_8852">
<rect width="778.847" height="514.986" fill="white" transform="translate(922.757 -183) rotate(19.9418)"/>
</clipPath>
<clipPath id="clip2_374_8852">
<rect width="569" height="302" fill="white" transform="matrix(-1 0 0 1 569 0)"/>
</clipPath>
<clipPath id="clip3_374_8852">
<rect width="778.847" height="514.986" fill="white" transform="matrix(-0.94004 0.341065 0.341065 0.94004 516.243 -183)"/>
</clipPath>
</defs>
</svg>
