<svg width="30" height="30" viewBox="0 0 30 30" fill="none" xmlns="http://www.w3.org/2000/svg">
<path d="M22.6781 6.96692L22.658 6.95505L22.6113 6.94083C22.6301 6.95667 22.6536 6.96585 22.6781 6.96692Z" fill="white"/>
<path d="M22.9729 9.06696L22.9503 9.0733L22.9729 9.06696Z" fill="white"/>
<path d="M22.6836 6.9525C22.6812 6.9522 22.6789 6.95165 22.6767 6.95087C22.6766 6.95238 22.6766 6.95391 22.6767 6.95543C22.6793 6.9551 22.6816 6.95408 22.6836 6.9525Z" fill="white"/>
<path d="M22.9529 9.05544L22.9869 9.03606L22.9995 9.02895L23.011 9.01669C22.9894 9.02604 22.9698 9.03915 22.9529 9.05544Z" fill="white"/>
<path d="M22.7349 7.00815L22.7017 6.97652L22.6792 6.96426C22.6913 6.98563 22.7113 7.0014 22.7349 7.00815Z" fill="white"/>
<path d="M14.3779 27.3817C14.3514 27.3932 14.3281 27.4111 14.3103 27.4339L14.3312 27.4204C14.3454 27.4074 14.3657 27.392 14.3779 27.3817Z" fill="white"/>
<path d="M19.2345 26.4265C19.2345 26.3964 19.2199 26.402 19.2235 26.5087C19.2235 26.5 19.227 26.4913 19.2286 26.4831C19.2306 26.464 19.2321 26.4454 19.2345 26.4265Z" fill="white"/>
<path d="M18.7306 27.3817C18.704 27.3932 18.6808 27.4111 18.663 27.4339L18.684 27.4204C18.6982 27.4074 18.7183 27.392 18.7306 27.3817Z" fill="white"/>
<path d="M10.962 27.6124C10.9419 27.5949 10.9172 27.5835 10.8909 27.5793C10.9122 27.5895 10.9336 27.5998 10.9478 27.6077L10.962 27.6124Z" fill="white"/>
<path d="M10.1965 26.8742C10.1934 26.8431 10.1838 26.813 10.1685 26.7857C10.1793 26.8141 10.1884 26.8431 10.1957 26.8727L10.1965 26.8742Z" fill="white"/>
<path d="M15.3586 13.6983C14.303 14.1502 13.1051 14.6626 11.5525 14.6626C10.903 14.6613 10.2567 14.5722 9.6311 14.3977L10.7049 25.4222C10.7429 25.883 10.9528 26.3126 11.2929 26.6258C11.6331 26.939 12.0786 27.1128 12.5409 27.1127C12.5409 27.1127 14.0634 27.1917 14.5714 27.1917C15.1183 27.1917 16.7577 27.1127 16.7577 27.1127C17.2201 27.1127 17.6654 26.9388 18.0055 26.6257C18.3455 26.3125 18.5554 25.8829 18.5934 25.4222L19.7435 13.2397C19.2296 13.0641 18.7108 12.9476 18.1261 12.9476C17.1148 12.9471 16.2999 13.2955 15.3586 13.6983Z" fill="#1B5CFF"/>
<path d="M6.30554 9.00333L6.32373 9.0203L6.33559 9.02741C6.32646 9.01841 6.31638 9.01027 6.30554 9.00333Z" fill="white"/>
<path d="M24.7099 7.98193L24.5483 7.16632C24.4031 6.43452 24.0738 5.74304 23.3226 5.47854C23.0819 5.39394 22.8087 5.35757 22.6241 5.18243C22.4394 5.00729 22.3848 4.73528 22.3421 4.48305C22.2631 4.02008 22.1888 3.55673 22.1077 3.09456C22.0378 2.69723 21.9824 2.25087 21.8001 1.88635C21.5629 1.39691 21.0707 1.11067 20.5812 0.921295C20.3304 0.827671 20.0745 0.748471 19.8147 0.684082C18.5918 0.361472 17.3062 0.242866 16.0481 0.175261C14.5381 0.0919403 13.0241 0.117043 11.5177 0.250378C10.3965 0.352379 9.21558 0.47573 8.1501 0.863575C7.76068 1.00551 7.35939 1.1759 7.06327 1.47677C6.69994 1.84643 6.58134 2.41811 6.84662 2.87909C7.0352 3.20645 7.35465 3.43773 7.69347 3.59073C8.1348 3.78787 8.5957 3.93788 9.06852 4.03827C10.385 4.32925 11.7486 4.44351 13.0937 4.49214C14.5844 4.55231 16.0775 4.50354 17.5612 4.34625C17.928 4.30593 18.2943 4.25756 18.6599 4.20116C19.0904 4.13514 19.3667 3.57215 19.2398 3.17995C19.088 2.71107 18.68 2.5292 18.2186 2.59997C18.1506 2.61065 18.083 2.62053 18.015 2.63041L17.966 2.63753C17.8097 2.6573 17.6534 2.67575 17.4971 2.69288C17.1743 2.72767 16.8505 2.75614 16.5261 2.77828C15.7994 2.82888 15.0708 2.85221 14.3425 2.85339C13.627 2.85339 12.911 2.83323 12.197 2.78618C11.8712 2.76483 11.5462 2.73768 11.222 2.70474C11.0745 2.68932 10.9275 2.67312 10.7804 2.65493L10.6404 2.63713L10.61 2.63279L10.4649 2.61183C10.1684 2.56716 9.87187 2.51576 9.57852 2.45369C9.54892 2.44712 9.52244 2.43066 9.50346 2.40701C9.48449 2.38336 9.47414 2.35394 9.47414 2.32362C9.47414 2.2933 9.48449 2.26388 9.50346 2.24023C9.52244 2.21658 9.54892 2.20011 9.57852 2.19354H9.58405C9.83826 2.13938 10.0945 2.09313 10.3514 2.0528C10.4371 2.03936 10.523 2.02618 10.6092 2.01326H10.6116C10.7725 2.00259 10.9342 1.97373 11.0943 1.95475C12.4874 1.80984 13.8888 1.76045 15.2886 1.80689C15.9683 1.82666 16.6475 1.86659 17.3239 1.93538C17.4694 1.95041 17.6141 1.96622 17.7588 1.98401C17.8142 1.99073 17.8699 1.99864 17.9256 2.00536L18.0379 2.02157C18.3653 2.07033 18.6909 2.1295 19.0149 2.19908C19.4948 2.30346 20.1112 2.33746 20.3247 2.86328C20.3927 3.03012 20.4235 3.21554 20.4611 3.39068L20.5089 3.61405C20.5102 3.61806 20.511 3.62216 20.5116 3.62631C20.6248 4.15345 20.7379 4.68059 20.8513 5.20773C20.8595 5.24667 20.8598 5.2869 20.8518 5.32593C20.8439 5.36495 20.828 5.40192 20.8052 5.43452C20.7823 5.46713 20.753 5.49468 20.7191 5.51545C20.685 5.53622 20.6471 5.54977 20.6077 5.55525H20.6045L20.5354 5.56474L20.467 5.57383C20.2504 5.60203 20.0334 5.62839 19.8162 5.6529C19.3884 5.70166 18.96 5.74383 18.5309 5.77941C17.6783 5.85031 16.8239 5.89684 15.9678 5.91898C15.5316 5.93057 15.0956 5.93598 14.6597 5.93519C12.9244 5.93382 11.1907 5.83296 9.46703 5.63313C9.28042 5.61099 9.09382 5.58727 8.90721 5.56315C9.0519 5.58174 8.80205 5.54892 8.75144 5.54181C8.63283 5.5252 8.51423 5.50794 8.39562 5.49001C7.9975 5.43031 7.60175 5.35678 7.20442 5.29234C6.72406 5.21327 6.26466 5.2528 5.83016 5.49001C5.4735 5.68518 5.18484 5.98446 5.00268 6.34794C4.81529 6.73538 4.75954 7.15722 4.67573 7.57354C4.59191 7.98984 4.46144 8.43778 4.51086 8.86517C4.61721 9.78754 5.26204 10.5371 6.18954 10.7048C7.06209 10.8629 7.93938 10.991 8.81904 11.1001C12.2746 11.5233 15.7655 11.5739 19.2319 11.2511C19.5142 11.2248 19.7961 11.196 20.0776 11.165C20.1655 11.1553 20.2545 11.1654 20.338 11.1946C20.4215 11.2238 20.4974 11.2713 20.5601 11.3336C20.6229 11.3959 20.671 11.4715 20.7007 11.5547C20.7305 11.638 20.7413 11.7269 20.7323 11.8149L20.6445 12.6681C20.4677 14.3921 20.2908 16.116 20.1139 17.8397C19.9295 19.6499 19.7437 21.4599 19.5569 23.2699C19.5041 23.7796 19.4514 24.2893 19.3987 24.7988C19.3481 25.3005 19.341 25.818 19.2457 26.3138C19.0955 27.0934 18.5677 27.5721 17.7976 27.7473C17.092 27.9079 16.3712 27.9921 15.6476 27.9987C14.8454 28.0031 14.0436 27.9675 13.2415 27.9718C12.3851 27.9766 11.3363 27.8975 10.6752 27.2602C10.0945 26.7004 10.0142 25.8239 9.93513 25.066C9.8297 24.0626 9.7252 23.0593 9.62161 22.0562L9.04044 16.4781L8.66446 12.8689C8.65813 12.8092 8.65181 12.7503 8.64588 12.6903C8.60081 12.2597 8.29599 11.8383 7.81563 11.8599C7.40447 11.8782 6.93715 12.2277 6.98539 12.6903L7.26411 15.366L7.84054 20.9009C8.00474 22.4732 8.16855 24.0456 8.33196 25.6183C8.36359 25.9196 8.39324 26.2216 8.42646 26.5229C8.60713 28.1691 9.86436 29.0563 11.4213 29.3062C12.3306 29.4525 13.2621 29.4825 14.1848 29.4975C15.3677 29.5165 16.5624 29.562 17.726 29.3477C19.4501 29.0314 20.7437 27.8801 20.9284 26.0943C20.9811 25.5788 21.0338 25.0631 21.0865 24.5473C21.2618 22.8415 21.4368 21.1355 21.6115 19.4295L22.1832 13.8549L22.4453 11.3001C22.4584 11.1735 22.5119 11.0544 22.5979 10.9605C22.6839 10.8665 22.7979 10.8028 22.9229 10.7787C23.416 10.6826 23.8872 10.5185 24.2379 10.1433C24.7961 9.546 24.9072 8.76711 24.7099 7.98193ZM6.16423 8.53306C6.17175 8.5295 6.15791 8.59397 6.15198 8.62397C6.15079 8.57854 6.15317 8.5382 6.16423 8.53306ZM6.21208 8.90314C6.21603 8.90031 6.22788 8.91617 6.24014 8.93511C6.22156 8.91771 6.2097 8.90468 6.21168 8.90314H6.21208ZM6.25912 8.9652C6.27612 8.99408 6.28522 9.01225 6.25912 8.9652V8.9652ZM6.35361 9.04191H6.35598C6.35598 9.04465 6.36033 9.0474 6.36192 9.05022C6.35929 9.04714 6.35638 9.0444 6.35322 9.04191H6.35361ZM22.9 8.92722C22.7229 9.09565 22.4561 9.17391 22.1923 9.21308C19.2351 9.65194 16.2347 9.87411 13.245 9.77605C11.1054 9.70294 8.98825 9.46534 6.86994 9.16602C6.66238 9.1368 6.43743 9.09882 6.29471 8.94582C6.02586 8.65722 6.15791 8.07603 6.22788 7.72733C6.29194 7.40788 6.41449 6.98208 6.79443 6.93661C7.38746 6.86704 8.07618 7.1173 8.66288 7.20625C9.36925 7.31405 10.0782 7.40037 10.7899 7.4652C13.827 7.74196 16.9151 7.69886 19.9388 7.29402C20.4899 7.21996 21.039 7.1339 21.5862 7.03585C22.0737 6.94848 22.6142 6.78441 22.9087 7.28928C23.1107 7.63323 23.1377 8.09342 23.1064 8.48206C23.0968 8.6514 23.0228 8.81065 22.8996 8.92722H22.9Z" fill="white"/>
</svg>
