<svg width="720" height="422" viewBox="0 0 720 422" fill="none" xmlns="http://www.w3.org/2000/svg">
<g clip-path="url(#clip0_425_5913)">
<path d="M69.8403 437.387C69.8403 437.387 -51.2314 207.178 81.1688 209.617C213.569 212.056 302.778 256.782 337.141 142.428C371.503 28.0748 408.393 23.7225 505.364 76.7585C602.335 129.795 625.879 20.4528 703.611 -14.1663" stroke="#1B5CFF" stroke-width="0.75" stroke-miterlimit="10"/>
<path d="M73.2487 442.163C73.2487 442.163 -55.1283 201.811 77.2719 204.25C209.672 206.689 307.082 259.45 341.414 145.074C375.747 30.6971 410.28 26.7781 507.258 79.8044C604.237 132.831 633.628 31.1037 706.978 -9.3582" stroke="#FF4658" stroke-width="0.75" stroke-miterlimit="10"/>
<path d="M76.6569 446.94C76.6569 446.94 -58.9769 196.402 73.4057 198.843C205.788 201.285 311.327 262.01 345.699 147.664C380.072 33.3187 412.185 29.7693 509.171 82.7857C606.158 135.802 641.387 41.7 710.387 -4.58164" stroke="#FF4658" stroke-width="0.75" stroke-miterlimit="10"/>
<path d="M80.0479 451.719C80.0479 451.719 -62.845 190.978 69.5475 193.427C201.94 195.876 315.63 264.599 350.002 150.253C384.374 35.9073 414.118 32.766 511.096 85.7922C608.075 138.818 649.157 52.3039 713.785 0.187124" stroke="#FFBA00" stroke-width="0.75" stroke-miterlimit="10"/>
<rect width="181" height="366" transform="matrix(-0.849136 0.528174 0.528174 0.849136 661.694 -151)" fill="url(#paint0_linear_425_5913)"/>
<rect width="181" height="366" transform="matrix(-0.379399 -0.925233 -0.925233 0.379399 232.307 393.467)" fill="url(#paint1_linear_425_5913)"/>
</g>
<defs>
<linearGradient id="paint0_linear_425_5913" x1="61.1179" y1="206.159" x2="136.98" y2="206.166" gradientUnits="userSpaceOnUse">
<stop stop-color="#141417"/>
<stop offset="1" stop-color="#141417" stop-opacity="0"/>
</linearGradient>
<linearGradient id="paint1_linear_425_5913" x1="61.1179" y1="206.159" x2="136.98" y2="206.166" gradientUnits="userSpaceOnUse">
<stop stop-color="#141417"/>
<stop offset="1" stop-color="#141417" stop-opacity="0"/>
</linearGradient>
<clipPath id="clip0_425_5913">
<rect width="720" height="422" fill="white"/>
</clipPath>
</defs>
</svg>
