<svg width="508" height="329" viewBox="0 0 508 329" fill="none" xmlns="http://www.w3.org/2000/svg">
<g clip-path="url(#clip0_125_1743)">
<g clip-path="url(#clip1_125_1743)">
<g opacity="0.6" clip-path="url(#clip2_125_1743)">
<g opacity="0.8">
<path d="M453.7 239.698C453.7 239.698 428.72 80.2007 317.583 152.202C206.445 224.204 175.814 220.396 86.2442 141.46C-3.32514 62.5233 -54.7543 85.6135 -109.072 181.87C-163.39 278.127 -233.579 121.394 -322.905 191.015" stroke="#170532" stroke-width="0.75" stroke-miterlimit="10"/>
<path d="M453.34 245.559C453.34 245.559 429.127 73.5871 317.998 145.565C206.869 217.543 173.539 224.871 83.9696 145.935C-5.59973 66.9982 -54.8318 89.1587 -109.138 185.42C-163.444 281.681 -234.576 134.502 -323.277 196.871" stroke="#1D0E3D" stroke-width="0.75" stroke-miterlimit="10"/>
<path d="M452.973 251.403C452.973 251.403 429.575 66.9351 318.437 138.937C207.3 210.938 171.288 229.354 81.7187 150.418C-7.85063 71.4816 -54.8388 92.7294 -109.192 188.973C-163.545 285.217 -235.573 147.609 -323.597 202.732" stroke="#221647" stroke-width="0.75" stroke-miterlimit="10"/>
<path d="M452.602 257.259C452.602 257.259 429.967 60.2896 318.829 132.291C207.692 204.293 168.99 233.821 79.425 154.873C-10.1401 75.9244 -54.8971 96.2948 -109.234 192.531C-163.571 288.768 -236.612 160.688 -324.015 208.571" stroke="#281F52" stroke-width="0.75" stroke-miterlimit="10"/>
<path d="M452.235 263.104C452.235 263.104 430.382 53.6525 319.245 125.654C208.107 197.656 166.716 238.296 77.2093 159.369C-12.2971 80.4419 -54.9435 99.8644 -109.28 196.101C-163.617 292.337 -237.569 173.797 -324.37 214.42" stroke="#2E275D" stroke-width="0.75" stroke-miterlimit="10"/>
<path d="M451.863 268.96C451.863 268.96 430.798 47.0155 319.66 119.017C208.523 191.019 164.441 242.77 74.9231 163.839C-14.5951 84.9082 -54.9389 103.439 -109.287 199.672C-163.636 295.904 -238.566 186.905 -324.742 220.276" stroke="#333068" stroke-width="0.75" stroke-miterlimit="10"/>
<path d="M451.508 274.808C451.508 274.808 431.213 40.3784 320.071 112.392C208.93 184.405 162.209 247.274 72.6326 168.322C-16.9442 89.3693 -55.059 106.956 -109.377 203.212C-163.694 299.469 -239.558 200.001 -325.109 226.12" stroke="#393872" stroke-width="0.75" stroke-miterlimit="10"/>
<path d="M451.137 280.665C451.137 280.665 431.629 33.7414 320.491 105.743C209.354 177.745 159.928 251.733 70.3507 172.781C-19.2262 93.8282 -55.0586 110.542 -109.36 206.792C-163.662 303.041 -240.503 213.114 -325.414 232.014" stroke="#3F417D" stroke-width="0.75" stroke-miterlimit="10"/>
<path d="M450.77 286.509C450.77 286.509 431.986 27.083 320.848 99.0846C209.711 171.086 157.583 256.182 68.006 177.23C-21.5708 98.2774 -55.1945 114.066 -109.524 210.319C-163.853 306.571 -241.597 226.16 -325.886 237.82" stroke="#444A88" stroke-width="0.75" stroke-miterlimit="10"/>
<path d="M450.398 292.365C450.398 292.365 432.46 20.4673 321.322 92.4689C210.185 164.47 155.338 260.721 65.7741 181.733C-23.79 102.746 -55.1825 117.657 -109.524 213.905C-163.865 310.153 -242.551 239.297 -326.206 243.681" stroke="#4A5293" stroke-width="0.75" stroke-miterlimit="10"/>
<path d="M450.027 298.221C450.027 298.221 432.871 13.8419 321.75 85.8361C210.628 157.83 153.085 265.137 63.5039 186.197C-26.0773 107.256 -55.2205 121.203 -109.573 217.447C-163.926 313.691 -243.543 252.393 -326.578 249.537" stroke="#505B9D" stroke-width="0.75" stroke-miterlimit="10"/>
<path d="M449.672 304.07C449.672 304.07 433.291 7.19314 322.165 79.199C211.039 151.205 150.799 269.608 61.2177 190.667C-28.3634 111.727 -55.2787 124.769 -109.62 221.017C-163.961 317.265 -244.54 265.501 -326.945 255.382" stroke="#5663A8" stroke-width="0.75" stroke-miterlimit="10"/>
<path d="M449.301 309.926C449.301 309.926 433.702 0.567802 322.577 72.5737C211.451 144.58 148.513 274.078 58.9316 195.138C-30.6495 116.197 -55.3209 128.327 -109.685 224.566C-164.05 320.806 -245.544 278.593 -327.316 261.238" stroke="#5B6CB3" stroke-width="0.75" stroke-miterlimit="10"/>
<path d="M448.933 315.77C448.933 315.77 434.118 -6.06925 322.992 65.9366C211.866 137.942 146.226 278.549 56.6494 199.597C-32.9274 120.644 -55.3633 131.885 -109.657 228.15C-163.952 324.415 -246.536 291.689 -327.671 267.086" stroke="#6175BE" stroke-width="0.75" stroke-miterlimit="10"/>
<path d="M448.562 321.626C448.562 321.626 434.545 -12.702 323.408 59.2996C212.27 131.301 143.94 283.02 54.3635 204.067C-35.2133 125.115 -55.4682 135.433 -109.746 231.691C-164.025 327.948 -247.533 304.796 -328.043 272.942" stroke="#677DC8" stroke-width="0.75" stroke-miterlimit="10"/>
<path d="M448.207 327.475C448.207 327.475 434.961 -19.3391 323.827 52.6508C212.694 124.641 141.658 287.479 52.1401 208.547C-37.3781 129.616 -55.4466 138.961 -109.812 235.24C-164.178 331.519 -248.486 317.893 -328.41 278.787" stroke="#6C86D3" stroke-width="0.75" stroke-miterlimit="10"/>
<path d="M447.835 333.331C447.835 333.331 435.376 -25.9762 324.239 46.0254C213.101 118.027 139.485 292.003 49.9082 213.051C-39.6686 134.099 -55.459 142.583 -109.799 238.792C-164.139 335 -249.505 330.953 -328.721 284.625" stroke="#728EDE" stroke-width="0.75" stroke-miterlimit="10"/>
<path d="M447.468 339.175C447.468 339.175 435.792 -32.6132 324.654 39.3884C213.517 111.39 137.152 296.457 47.5868 217.509C-41.9783 138.561 -55.5642 146.131 -109.901 242.368C-164.238 338.604 -250.53 344.104 -329.152 290.499" stroke="#7897E9" stroke-width="0.75" stroke-miterlimit="10"/>
<path d="M447.097 345.031C447.097 345.031 436.207 -39.2502 325.07 32.7513C213.932 104.753 134.913 300.945 45.336 221.992C-44.2409 143.04 -55.6064 149.689 -109.964 245.945C-164.321 342.2 -251.518 357.188 -329.508 296.348" stroke="#7D9FF3" stroke-width="0.75" stroke-miterlimit="10"/>
<path d="M446.73 350.876C446.73 350.876 436.627 -45.899 325.485 26.1143C214.344 98.1276 132.603 305.407 43.0252 226.494C-46.5527 147.581 -55.6732 153.278 -110.014 249.526C-164.355 345.774 -252.51 370.284 -329.879 302.204" stroke="#83A8FE" stroke-width="0.75" stroke-miterlimit="10"/>
</g>
</g>
<rect x="-1044.113" y="-28.3329" width="452" height="491" fill="url(#paint0_linear_125_1743)"/>
<rect x="-1" y="-3" width="149" height="366" fill="url(#paint1_linear_125_1743)"/>
</g>
<rect x="219.358" y="489.006" width="452" height="491" transform="rotate(-105 219.358 489.006)" fill="url(#paint2_linear_125_1743)"/>
</g>
<defs>
<linearGradient id="paint0_linear_125_1743" x1="-240.73" y1="248.667" x2="71.0217" y2="248.667" gradientUnits="userSpaceOnUse">
<stop stop-color="#141417"/>
<stop offset="1" stop-color="#141417" stop-opacity="0"/>
</linearGradient>
<linearGradient id="paint1_linear_125_1743" x1="49.3125" y1="203.159" x2="111.763" y2="203.163" gradientUnits="userSpaceOnUse">
<stop stop-color="#141417"/>
<stop offset="1" stop-color="#141417" stop-opacity="0"/>
</linearGradient>
<linearGradient id="paint2_linear_125_1743" x1="371.984" y1="765.574" x2="561.431" y2="765.608" gradientUnits="userSpaceOnUse">
<stop stop-color="#141417"/>
<stop offset="1" stop-color="#141417" stop-opacity="0"/>
</linearGradient>
<clipPath id="clip0_125_1743">
<rect width="508" height="329" fill="white"/>
</clipPath>
<clipPath id="clip1_125_1743">
<rect width="654" height="750" fill="white" transform="translate(-110 -181)"/>
</clipPath>
<clipPath id="clip2_125_1743">
<rect width="778.847" height="514.986" fill="white" transform="translate(-188.356 -181) rotate(19.9418)"/>
</clipPath>
</defs>
</svg>
