<svg width="217" height="36" viewBox="0 0 217 36" fill="none" xmlns="http://www.w3.org/2000/svg">
    <path
        d="M7.16023 29.1285C5.35499 29.1285 3.83615 28.7292 2.60372 27.9308C1.37129 27.1149 0.503386 26.0127 0 24.624L3.07239 22.8275C3.78408 24.6848 5.18141 25.6135 7.26438 25.6135C8.27116 25.6135 9.00888 25.4312 9.47755 25.0667C9.94622 24.7021 10.1806 24.2422 10.1806 23.6867C10.1806 23.0444 9.89414 22.5497 9.32132 22.2026C8.7485 21.8381 7.72437 21.4475 6.24893 21.0309C5.4331 20.7879 4.73877 20.5449 4.16596 20.3019C3.61049 20.0588 3.04635 19.7377 2.47354 19.3385C1.91808 18.9219 1.4928 18.4011 1.19771 17.7762C0.902624 17.1514 0.755079 16.4223 0.755079 15.5891C0.755079 13.9401 1.33658 12.6296 2.49957 11.6575C3.67993 10.6681 5.09462 10.1734 6.74364 10.1734C8.21908 10.1734 9.51226 10.5379 10.6232 11.2669C11.7515 11.9786 12.6281 12.9767 13.2529 14.2612L10.2326 16.0057C9.50358 14.4435 8.34059 13.6624 6.74364 13.6624C5.99724 13.6624 5.40706 13.836 4.97311 14.1831C4.55651 14.5129 4.34822 14.9469 4.34822 15.485C4.34822 16.0578 4.58255 16.5265 5.05122 16.891C5.53725 17.2381 6.45723 17.62 7.81117 18.0366C8.36663 18.2102 8.78322 18.3491 9.06095 18.4532C9.35604 18.54 9.7466 18.6876 10.2326 18.8959C10.736 19.0868 11.1179 19.269 11.3783 19.4426C11.656 19.6162 11.9684 19.8505 12.3156 20.1456C12.6628 20.4407 12.9231 20.7445 13.0967 21.0569C13.2877 21.3694 13.4439 21.7513 13.5654 22.2026C13.7043 22.6365 13.7737 23.1139 13.7737 23.6346C13.7737 25.3184 13.1575 26.6549 11.925 27.6444C10.71 28.6338 9.12171 29.1285 7.16023 29.1285Z"
        fill="white" />
    <path
        d="M23.1994 15.3808C24.6227 15.3808 25.7944 15.8582 26.7144 16.8129C27.6517 17.7676 28.1204 19.0868 28.1204 20.7705V28.764H24.7616V21.1871C24.7616 20.3192 24.5273 19.6596 24.0586 19.2083C23.5899 18.7396 22.965 18.5053 22.1839 18.5053C21.316 18.5053 20.6217 18.7743 20.1009 19.3124C19.5802 19.8505 19.3198 20.6577 19.3198 21.7339V28.764H15.961V10.5379H19.3198V17.2034C20.1357 15.9884 21.4288 15.3808 23.1994 15.3808Z"
        fill="white" />
    <path
        d="M40.8825 15.7453H44.2413V28.764H40.8825V27.2278C39.8757 28.4949 38.461 29.1285 36.6384 29.1285C34.9026 29.1285 33.4098 28.4689 32.16 27.1496C30.9276 25.8131 30.3114 24.1814 30.3114 22.2547C30.3114 20.3279 30.9276 18.7049 32.16 17.3857C33.4098 16.0491 34.9026 15.3808 36.6384 15.3808C38.461 15.3808 39.8757 16.0144 40.8825 17.2815V15.7453ZM34.6856 24.9104C35.3626 25.5874 36.2218 25.9259 37.2633 25.9259C38.3048 25.9259 39.164 25.5874 39.841 24.9104C40.5353 24.2161 40.8825 23.3309 40.8825 22.2547C40.8825 21.1784 40.5353 20.3019 39.841 19.6249C39.164 18.9306 38.3048 18.5834 37.2633 18.5834C36.2218 18.5834 35.3626 18.9306 34.6856 19.6249C34.0087 20.3019 33.6702 21.1784 33.6702 22.2547C33.6702 23.3309 34.0087 24.2161 34.6856 24.9104Z"
        fill="white" />
    <path
        d="M59.2902 28.764H55.3846L50.6458 22.8535V28.764H47.287V10.5379H50.6458V21.4735L55.1242 15.7453H59.134L53.9005 22.1765L59.2902 28.764Z"
        fill="white" />
    <path
        d="M62.864 23.6346C63.3153 25.2663 64.5391 26.0821 66.5353 26.0821C67.8198 26.0821 68.7918 25.6482 69.4514 24.7803L72.1593 26.3425C70.8748 28.1998 68.9828 29.1285 66.4832 29.1285C64.3308 29.1285 62.6036 28.4775 61.3018 27.1757C59.9999 25.8738 59.349 24.2335 59.349 22.2547C59.349 20.2932 59.9912 18.6615 61.2757 17.3597C62.5602 16.0404 64.2093 15.3808 66.2228 15.3808C68.1322 15.3808 69.7031 16.0404 70.9355 17.3597C72.1853 18.6789 72.8102 20.3105 72.8102 22.2547C72.8102 22.6886 72.7668 23.1486 72.68 23.6346H62.864ZM62.8119 21.0309H69.4514C69.2605 20.1456 68.8613 19.486 68.2537 19.0521C67.6635 18.6181 66.9866 18.4011 66.2228 18.4011C65.3202 18.4011 64.5738 18.6355 63.9836 19.1041C63.3934 19.5555 63.0029 20.1977 62.8119 21.0309Z"
        fill="white" />
    <path
        d="M81.132 28.6598C80.3161 28.6598 79.6652 28.4342 79.1792 27.9828C78.7105 27.5315 78.4762 26.8546 78.4762 25.9519C78.4762 25.4485 78.5456 24.8497 78.6845 24.1554C78.8233 23.461 79.0056 22.7233 79.2312 21.9422C79.4743 21.1437 79.7346 20.3626 80.0124 19.5989C79.8561 19.5468 79.7086 19.5034 79.5697 19.4687C79.4482 19.4166 79.2833 19.3472 79.075 19.2604V18.4532C79.3875 18.5053 79.6218 18.5574 79.778 18.6094C79.9342 18.6442 80.1252 18.6789 80.3509 18.7136C80.8369 17.4812 81.3576 16.3442 81.9131 15.3027C82.4685 14.2612 83.0067 13.428 83.5274 12.8031C84.0481 12.1782 84.4994 11.8658 84.8813 11.8658C85.0723 11.8658 85.2458 11.9352 85.4021 12.0741C85.5583 12.213 85.6364 12.3692 85.6364 12.5428C85.6364 12.7511 85.5323 13.0896 85.324 13.5582C85.1157 14.0269 84.8466 14.5563 84.5168 15.1465C84.2044 15.7193 83.8832 16.2921 83.5534 16.8649C83.241 17.4378 82.9546 17.9325 82.6942 18.3491C82.4512 18.7657 82.3036 19.0347 82.2516 19.1562C82.7029 19.2257 83.1195 19.2864 83.5014 19.3385C83.8832 19.3732 84.2651 19.3906 84.647 19.3906C85.1504 19.3906 85.6711 19.3558 86.2092 19.2864C86.7473 19.217 87.3462 19.1215 88.0058 19C88.4745 17.7502 88.9952 16.5265 89.568 15.3288C90.1408 14.1137 90.7223 13.0288 91.3125 12.0741C91.9201 11.102 92.4929 10.3296 93.031 9.75679C93.5864 9.16661 94.0725 8.87152 94.4891 8.87152C94.8362 8.87152 95.1053 9.07114 95.2962 9.47038C95.4872 9.85226 95.5826 10.2689 95.5826 10.7202C95.5826 11.293 95.4351 11.9873 95.14 12.8031C94.8449 13.619 94.437 14.4608 93.9162 15.3288C93.3955 16.1967 92.7793 17.0125 92.0676 17.7762C91.3733 18.54 90.6182 19.1562 89.8024 19.6249C89.5767 20.1456 89.3684 20.7966 89.1775 21.5777C89.0039 22.3414 88.865 23.0878 88.7609 23.8169C88.6567 24.5459 88.6046 25.1274 88.6046 25.5614C89.0212 24.4678 89.4899 23.461 90.0107 22.5411C90.5314 21.6211 91.1129 20.8834 91.7552 20.3279C92.4148 19.7724 93.1264 19.4947 93.8902 19.4947C94.6887 19.4947 95.2702 19.7638 95.6347 20.3019C95.9992 20.8226 96.1815 21.3954 96.1815 22.0203C96.1815 22.5237 96.086 23.0358 95.8951 23.5565C95.7215 24.0599 95.5392 24.5459 95.3483 25.0146C95.1747 25.4659 95.0879 25.8738 95.0879 26.2383C95.0879 26.5508 95.1573 26.7678 95.2962 26.8893C95.4524 27.0108 95.6173 27.0715 95.7909 27.0715C96.1728 27.0715 96.6154 26.8806 97.1188 26.4987C97.6396 26.0995 98.143 25.5787 98.629 24.9365C99.1324 24.2942 99.549 23.6086 99.8788 22.8795L100.373 23.3482C99.9916 24.2161 99.5316 25.0146 98.9935 25.7436C98.4554 26.4727 97.8565 27.0455 97.1969 27.4621C96.5547 27.896 95.869 28.113 95.14 28.113C94.4804 28.113 93.9683 27.9394 93.6038 27.5923C93.2566 27.2451 93.083 26.8112 93.083 26.2904C93.083 25.9259 93.1438 25.5353 93.2653 25.1187C93.4042 24.6848 93.5344 24.2422 93.6559 23.7908C93.7774 23.3395 93.8381 22.9229 93.8381 22.5411C93.8381 22.1418 93.7513 21.8554 93.5778 21.6818C93.4215 21.5083 93.2046 21.4215 92.9268 21.4215C92.5102 21.4215 92.1283 21.595 91.7812 21.9422C91.4514 22.272 91.1476 22.706 90.8699 23.2441C90.5922 23.7822 90.3318 24.355 90.0888 24.9625C89.8457 25.5527 89.6027 26.1168 89.3597 26.6549C89.1341 27.193 88.8911 27.627 88.6307 27.9568C88.3877 28.304 88.1186 28.4775 87.8235 28.4775C87.5632 28.4775 87.3462 28.3474 87.1726 28.087C87.0164 27.8266 86.8862 27.5142 86.782 27.1496C86.6779 26.7851 86.6085 26.4293 86.5737 26.0821C86.539 25.7176 86.5217 25.4399 86.5217 25.2489C85.8273 26.2557 85.0115 27.0715 84.0742 27.6964C83.1542 28.3387 82.1735 28.6598 81.132 28.6598ZM81.887 27.3579C82.755 27.3579 83.6229 26.9847 84.4908 26.2383C85.376 25.4746 86.1398 24.4331 86.782 23.1139C86.8862 22.5931 86.999 22.0984 87.1205 21.6298C87.242 21.1611 87.3983 20.649 87.5892 20.0936C87.0685 20.1977 86.5651 20.2758 86.079 20.3279C85.593 20.38 85.1157 20.406 84.647 20.406C84.1783 20.406 83.7096 20.38 83.241 20.3279C82.7723 20.2758 82.295 20.2064 81.8089 20.1196C81.4271 20.9701 81.1146 21.8294 80.8716 22.6973C80.6286 23.5652 80.5071 24.4505 80.5071 25.3531C80.5071 26.0648 80.6025 26.5768 80.7935 26.8893C81.0018 27.2017 81.3663 27.3579 81.887 27.3579ZM90.3231 17.9845C90.8265 17.5506 91.2952 17.0646 91.7291 16.5265C92.1631 15.9884 92.5449 15.4416 92.8747 14.8861C93.2219 14.3133 93.5083 13.7752 93.734 13.2718C93.977 12.7511 94.1419 12.2998 94.2287 11.9179C94.2808 11.6749 94.3068 11.4839 94.3068 11.3451C94.1679 11.3798 93.9423 11.5707 93.6298 11.9179C93.3347 12.265 92.9876 12.7424 92.5883 13.3499C92.1891 13.9401 91.7899 14.6344 91.3906 15.4329C90.9914 16.214 90.6355 17.0646 90.3231 17.9845Z"
        fill="white" />
    <path
        d="M100.712 28.6858C100.14 28.6858 99.6448 28.4949 99.2282 28.113C98.7943 27.7311 98.5773 27.1583 98.5773 26.3946C98.5773 25.787 98.7162 25.1274 98.9939 24.4157C99.2716 23.7041 99.6535 23.0011 100.14 22.3067C100.626 21.6124 101.181 20.9875 101.806 20.432C102.431 19.8592 103.099 19.3992 103.811 19.0521C104.522 18.7049 105.234 18.5313 105.946 18.5313C106.692 18.5313 107.326 18.7223 107.847 19.1041C108.367 19.486 108.628 19.9894 108.628 20.6143C108.628 21.083 108.463 21.4215 108.133 21.6298C107.803 21.8381 107.413 21.8988 106.961 21.812C106.996 21.6558 107.022 21.4996 107.039 21.3433C107.074 21.1871 107.091 21.0222 107.091 20.8486C107.091 20.5015 107.022 20.189 106.883 19.9113C106.744 19.6336 106.449 19.4947 105.998 19.4947C105.512 19.4947 105.017 19.6596 104.514 19.9894C104.01 20.3192 103.524 20.7532 103.056 21.2913C102.604 21.812 102.196 22.3935 101.832 23.0358C101.467 23.6607 101.181 24.2769 100.973 24.8844C100.764 25.4919 100.66 26.0387 100.66 26.5248C100.66 27.0802 100.86 27.3579 101.259 27.3579C101.658 27.3579 102.101 27.167 102.587 26.7851C103.073 26.3859 103.559 25.8912 104.045 25.301C104.549 24.7108 105.026 24.112 105.477 23.5044C105.928 22.8795 106.319 22.3501 106.649 21.9162C106.701 21.8294 106.77 21.786 106.857 21.786C106.927 21.8033 107.057 21.8467 107.248 21.9162C107.456 21.9682 107.647 22.055 107.821 22.1765C107.994 22.298 108.081 22.4543 108.081 22.6452C108.081 22.8188 108.003 23.0444 107.847 23.3222C107.708 23.5825 107.534 23.8776 107.326 24.2074C107.135 24.5199 106.961 24.841 106.805 25.1708C106.666 25.4833 106.597 25.787 106.597 26.0821C106.597 26.3078 106.658 26.5248 106.779 26.7331C106.901 26.924 107.1 27.0195 107.378 27.0195C107.794 27.0195 108.376 26.7157 109.122 26.1082C109.886 25.4833 110.659 24.4331 111.44 22.9577L111.934 23.4524C111.518 24.3897 111.014 25.2229 110.424 25.9519C109.851 26.6636 109.244 27.2191 108.602 27.6183C107.959 28.0349 107.308 28.2432 106.649 28.2432C105.937 28.2432 105.408 28.0176 105.061 27.5662C104.713 27.1149 104.522 26.6289 104.488 26.1082C104.488 26.0734 104.488 26.0474 104.488 26.03C104.488 26.0127 104.488 25.9953 104.488 25.978C103.793 26.8112 103.151 27.4708 102.561 27.9568C101.988 28.4428 101.372 28.6858 100.712 28.6858Z"
        fill="white" />
    <path
        d="M113.193 28.6598C112.429 28.6598 111.813 28.4342 111.344 27.9828C110.876 27.5315 110.641 26.8459 110.641 25.9259C110.641 25.2142 110.771 24.3289 111.032 23.2701C111.31 22.2113 111.657 21.1177 112.073 19.9894C111.952 19.9547 111.804 19.9287 111.631 19.9113C111.474 19.8766 111.318 19.8245 111.162 19.7551V18.9479C111.44 18.9826 111.665 19.0087 111.839 19.026C112.03 19.0434 112.221 19.0608 112.412 19.0781C112.776 18.1581 113.167 17.2729 113.583 16.4223C114.017 15.5544 114.443 14.782 114.859 14.105C115.293 13.428 115.701 12.8986 116.083 12.5167C116.465 12.1175 116.803 11.9179 117.099 11.9179C117.272 11.9179 117.437 11.9873 117.593 12.1262C117.749 12.2477 117.828 12.4299 117.828 12.673C117.828 13.0201 117.645 13.5148 117.281 14.1571C116.934 14.7993 116.5 15.5544 115.979 16.4223C115.458 17.2729 114.955 18.1842 114.469 19.1562C114.608 19.1562 114.746 19.1562 114.885 19.1562C115.024 19.1562 115.154 19.1562 115.276 19.1562C116.04 19.1562 116.725 19.1475 117.333 19.1302C117.958 19.0955 118.591 19.0434 119.234 18.974V19.8332C118.279 19.92 117.402 19.9894 116.604 20.0415C115.805 20.0936 115.042 20.1283 114.313 20.1456C114.26 20.1456 114.208 20.1456 114.156 20.1456C114.104 20.1456 114.052 20.1456 114 20.1456C113.636 20.9962 113.314 21.8728 113.037 22.7754C112.776 23.6607 112.646 24.5286 112.646 25.3791C112.646 26.0908 112.759 26.5942 112.985 26.8893C113.21 27.1844 113.566 27.3319 114.052 27.3319C114.92 27.3319 115.805 26.9413 116.708 26.1602C117.628 25.3618 118.426 24.2856 119.103 22.9316L119.468 23.192C119.017 24.2161 118.452 25.1448 117.775 25.978C117.116 26.8112 116.396 27.4621 115.614 27.9308C114.833 28.4168 114.026 28.6598 113.193 28.6598Z"
        fill="white" />
    <path d="M125.916 10.5379H129.509V28.764H125.916V10.5379Z" fill="white" />
    <path
        d="M138.924 29.1285C136.962 29.1285 135.322 28.4689 134.003 27.1496C132.701 25.8304 132.05 24.1988 132.05 22.2547C132.05 20.3105 132.701 18.6789 134.003 17.3597C135.322 16.0404 136.962 15.3808 138.924 15.3808C140.191 15.3808 141.345 15.6846 142.387 16.2921C143.428 16.8997 144.218 17.7155 144.756 18.7396L141.866 20.432C141.605 19.8939 141.206 19.4687 140.668 19.1562C140.147 18.8438 139.557 18.6876 138.898 18.6876C137.891 18.6876 137.058 19.026 136.398 19.703C135.738 20.3626 135.409 21.2132 135.409 22.2547C135.409 23.2788 135.738 24.1293 136.398 24.8063C137.058 25.4659 137.891 25.7957 138.898 25.7957C139.575 25.7957 140.173 25.6482 140.694 25.3531C141.232 25.0406 141.631 24.6154 141.892 24.0773L144.808 25.7436C144.235 26.7678 143.428 27.5923 142.387 28.2172C141.345 28.8247 140.191 29.1285 138.924 29.1285Z"
        fill="white" />
    <path
        d="M157.473 27.1496C156.136 28.4689 154.505 29.1285 152.578 29.1285C150.651 29.1285 149.019 28.4689 147.683 27.1496C146.364 25.8131 145.704 24.1814 145.704 22.2547C145.704 20.3279 146.364 18.7049 147.683 17.3857C149.019 16.0491 150.651 15.3808 152.578 15.3808C154.505 15.3808 156.136 16.0491 157.473 17.3857C158.809 18.7049 159.478 20.3279 159.478 22.2547C159.478 24.1814 158.809 25.8131 157.473 27.1496ZM150.052 24.8323C150.729 25.5093 151.571 25.8478 152.578 25.8478C153.585 25.8478 154.427 25.5093 155.104 24.8323C155.78 24.1554 156.119 23.2961 156.119 22.2547C156.119 21.2132 155.78 20.3539 155.104 19.677C154.427 19 153.585 18.6615 152.578 18.6615C151.571 18.6615 150.729 19 150.052 19.677C149.393 20.3539 149.063 21.2132 149.063 22.2547C149.063 23.2961 149.393 24.1554 150.052 24.8323Z"
        fill="white" />
    <path
        d="M169.079 15.3808C170.502 15.3808 171.674 15.8582 172.594 16.8129C173.531 17.7676 174 19.0868 174 20.7705V28.764H170.641V21.1871C170.641 20.3192 170.407 19.6596 169.938 19.2083C169.47 18.7396 168.845 18.5053 168.064 18.5053C167.196 18.5053 166.501 18.7743 165.981 19.3124C165.46 19.8505 165.199 20.6577 165.199 21.7339V28.764H161.841V15.7453H165.199V17.2034C166.015 15.9884 167.308 15.3808 169.079 15.3808Z"
        fill="white" />
    <!-- <path fill-rule="evenodd" clip-rule="evenodd"
        d="M201.163 5C199.782 5 198.663 6.11929 198.663 7.5C198.663 8.88071 199.782 10 201.163 10C202.544 10 203.663 8.88071 203.663 7.5C203.663 6.11929 202.544 5 201.163 5ZM193.663 7.5C193.663 3.35786 197.021 0 201.163 0C205.305 0 208.663 3.35786 208.663 7.5C208.663 9.69906 207.716 11.6771 206.209 13.0489C210.156 14.5033 213.612 17.5936 215.62 22.2269L211.032 24.215C208.933 19.3708 204.844 17.0872 200.807 17.0872C196.76 17.0872 192.549 19.3858 190.266 24.2782L185.735 22.1637C187.976 17.3609 191.727 14.2228 195.919 12.8622C194.527 11.5006 193.663 9.60119 193.663 7.5Z"
        fill="white" />
    <path fill-rule="evenodd" clip-rule="evenodd"
        d="M193.174 27.4419C193.174 23.3062 196.527 19.9535 200.663 19.9535C204.798 19.9535 208.151 23.3062 208.151 27.4419V35.5H203.151V27.4419C203.151 26.0676 202.037 24.9535 200.663 24.9535C199.288 24.9535 198.174 26.0676 198.174 27.4419V35.5H193.174V27.4419Z"
        fill="white" /> -->
</svg>