<svg width="569" height="302" viewBox="0 0 569 302" fill="none" xmlns="http://www.w3.org/2000/svg">
<g clip-path="url(#clip0_127_1813)">
<g opacity="0.6" clip-path="url(#clip1_127_1813)">
<g opacity="0.8">
<path d="M694.813 237.698C694.813 237.698 669.833 78.2007 558.695 150.202C447.558 222.204 416.926 218.396 327.357 139.46C237.788 60.5233 186.359 83.6135 132.041 179.87C77.7234 276.127 7.53346 119.394 -81.7922 189.015" stroke="#170532" stroke-width="0.75" stroke-miterlimit="10"/>
<path d="M694.453 243.559C694.453 243.559 670.24 71.5871 559.111 143.565C447.982 215.543 414.652 222.871 325.083 143.935C235.513 64.9982 186.281 87.1587 131.975 183.42C77.6694 279.681 6.53687 132.502 -82.1636 194.871" stroke="#1D0E3D" stroke-width="0.75" stroke-miterlimit="10"/>
<path d="M694.086 249.403C694.086 249.403 670.687 64.9351 559.55 136.937C448.412 208.938 412.401 227.354 322.832 148.418C233.262 69.4816 186.274 90.7294 131.921 186.973C77.5684 283.217 5.54023 145.609 -82.4837 200.732" stroke="#221647" stroke-width="0.75" stroke-miterlimit="10"/>
<path d="M693.714 255.259C693.714 255.259 671.08 58.2896 559.942 130.291C448.805 202.293 410.103 231.821 320.538 152.873C230.973 73.9244 186.216 94.2948 131.879 190.531C77.5421 286.768 4.50097 158.688 -82.902 206.571" stroke="#281F52" stroke-width="0.75" stroke-miterlimit="10"/>
<path d="M693.348 261.104C693.348 261.104 671.495 51.6525 560.358 123.654C449.22 195.656 407.829 236.296 318.322 157.369C228.816 78.4419 186.169 97.8644 131.833 194.101C77.4957 290.337 3.5439 171.797 -83.2572 212.42" stroke="#2E275D" stroke-width="0.75" stroke-miterlimit="10"/>
<path d="M692.976 266.96C692.976 266.96 671.911 45.0155 560.773 117.017C449.636 189.019 405.554 240.77 316.036 161.839C226.518 82.9082 186.174 101.439 131.826 197.672C77.4769 293.904 2.54736 184.905 -83.6285 218.276" stroke="#333068" stroke-width="0.75" stroke-miterlimit="10"/>
<path d="M692.621 272.808C692.621 272.808 672.326 38.3784 561.185 110.392C450.043 182.405 403.323 245.274 313.746 166.322C224.169 87.3693 186.054 104.956 131.736 201.212C77.4187 297.469 1.55507 198.001 -83.9955 224.12" stroke="#393872" stroke-width="0.75" stroke-miterlimit="10"/>
<path d="M692.25 278.665C692.25 278.665 672.742 31.7414 561.604 103.743C450.467 175.745 401.041 249.733 311.464 170.781C221.887 91.8282 186.054 108.542 131.753 204.792C77.4512 301.041 0.609725 211.114 -84.3007 230.014" stroke="#3F417D" stroke-width="0.75" stroke-miterlimit="10"/>
<path d="M691.883 284.509C691.883 284.509 673.099 25.083 561.961 97.0846C450.824 169.086 398.696 254.182 309.119 175.23C219.542 96.2774 185.918 112.066 131.589 208.319C77.2595 304.571 -0.48401 224.16 -84.7734 235.82" stroke="#444A88" stroke-width="0.75" stroke-miterlimit="10"/>
<path d="M691.511 290.365C691.511 290.365 673.573 18.4673 562.435 90.4689C451.298 162.47 396.451 258.721 306.887 179.733C217.323 100.746 185.93 115.657 131.589 211.905C77.2482 308.153 -1.43793 237.297 -85.0935 241.681" stroke="#4A5293" stroke-width="0.75" stroke-miterlimit="10"/>
<path d="M691.14 296.221C691.14 296.221 673.984 11.8419 562.863 83.8361C451.741 155.83 394.198 263.137 304.617 184.197C215.036 105.256 185.892 119.203 131.54 215.447C77.1867 311.691 -2.43026 250.393 -85.4648 247.537" stroke="#505B9D" stroke-width="0.75" stroke-miterlimit="10"/>
<path d="M690.785 302.07C690.785 302.07 674.404 5.19314 563.278 77.199C452.152 149.205 391.912 267.608 302.331 188.667C212.749 109.727 185.834 122.769 131.493 219.017C77.1519 315.265 -3.42682 263.501 -85.8319 253.382" stroke="#5663A8" stroke-width="0.75" stroke-miterlimit="10"/>
<path d="M690.413 307.926C690.413 307.926 674.815 -1.4322 563.689 70.5737C452.564 142.58 389.626 272.078 300.044 193.138C210.463 114.197 185.792 126.327 131.427 222.566C77.0629 318.806 -4.43079 276.593 -86.2031 259.238" stroke="#5B6CB3" stroke-width="0.75" stroke-miterlimit="10"/>
<path d="M690.046 313.77C690.046 313.77 675.231 -8.06925 564.105 63.9366C452.979 135.942 387.339 276.549 297.762 197.597C208.186 118.644 185.75 129.885 131.456 226.15C77.1615 322.415 -5.42313 289.689 -86.5584 265.086" stroke="#6175BE" stroke-width="0.75" stroke-miterlimit="10"/>
<path d="M689.675 319.626C689.675 319.626 675.658 -14.702 564.521 57.2996C453.383 129.301 385.053 281.02 295.476 202.067C205.899 123.115 185.645 133.433 131.366 229.691C77.0882 325.948 -6.41973 302.796 -86.9298 270.942" stroke="#677DC8" stroke-width="0.75" stroke-miterlimit="10"/>
<path d="M689.32 325.475C689.32 325.475 676.074 -21.3391 564.94 50.6508C453.807 122.641 382.771 285.479 293.253 206.547C203.735 127.616 185.666 136.961 131.301 233.24C76.935 329.519 -7.37262 315.893 -87.2968 276.787" stroke="#6C86D3" stroke-width="0.75" stroke-miterlimit="10"/>
<path d="M688.948 331.331C688.948 331.331 676.489 -27.9762 565.352 44.0254C454.214 116.027 380.598 290.003 291.021 211.051C201.444 132.099 185.654 140.583 131.314 236.792C76.9738 333 -8.39156 328.953 -87.6084 282.625" stroke="#728EDE" stroke-width="0.75" stroke-miterlimit="10"/>
<path d="M688.581 337.175C688.581 337.175 676.905 -34.6132 565.767 37.3884C454.63 109.39 378.265 294.457 288.7 215.509C199.135 136.561 185.549 144.131 131.212 240.368C76.8751 336.604 -9.41688 342.104 -88.0394 288.499" stroke="#7897E9" stroke-width="0.75" stroke-miterlimit="10"/>
<path d="M688.21 343.031C688.21 343.031 677.32 -41.2502 566.183 30.7513C455.045 102.753 376.026 298.945 286.449 219.992C196.872 141.04 185.507 147.689 131.149 243.945C76.7923 340.2 -10.405 355.188 -88.3947 294.348" stroke="#7D9FF3" stroke-width="0.75" stroke-miterlimit="10"/>
<path d="M687.843 348.876C687.843 348.876 677.74 -47.899 566.598 24.1143C455.456 96.1276 373.716 303.407 284.138 224.494C194.56 145.581 185.44 151.278 131.099 247.526C76.7575 343.774 -11.3973 368.284 -88.7661 300.204" stroke="#83A8FE" stroke-width="0.75" stroke-miterlimit="10"/>
</g>
</g>
<rect x="-93" y="-30.3329" width="452" height="491" fill="url(#paint0_linear_127_1813)"/>
<rect width="181" height="366" transform="matrix(-1 0 0 1 569 -92)" fill="url(#paint1_linear_127_1813)"/>
</g>
<defs>
<linearGradient id="paint0_linear_127_1813" x1="10.383" y1="246.667" x2="270.5" y2="246.667" gradientUnits="userSpaceOnUse">
<stop stop-color="#141417"/>
<stop offset="1" stop-color="#141417" stop-opacity="0"/>
</linearGradient>
<linearGradient id="paint1_linear_127_1813" x1="61.1179" y1="206.159" x2="136.98" y2="206.166" gradientUnits="userSpaceOnUse">
<stop stop-color="#141417"/>
<stop offset="1" stop-color="#141417" stop-opacity="0"/>
</linearGradient>
<clipPath id="clip0_127_1813">
<rect width="569" height="302" fill="white"/>
</clipPath>
<clipPath id="clip1_127_1813">
<rect width="778.847" height="514.986" fill="white" transform="translate(52.7571 -183) rotate(19.9418)"/>
</clipPath>
</defs>
</svg>
